<svg width="552" height="424" viewBox="0 0 552 424" fill="none" xmlns="http://www.w3.org/2000/svg">
<g clip-path="url(#clip0_1032_14833)">
<rect width="552" height="424" fill="white"/>
<g opacity="0.1">
<path d="M503.202 305.113C577.71 325.263 626.019 393.958 614.509 463.384C618.116 463.708 621.718 464.167 625.329 464.696C627.208 464.966 629.091 465.214 630.979 465.554C643.26 388.933 590.072 313.274 508.027 290.724C507.518 292.627 506.925 294.464 506.308 296.297C505.354 299.277 504.306 302.236 503.207 305.092L503.202 305.113Z" fill="#B89635" fill-opacity="0.83"/>
<path d="M526.06 450.69C532.722 420.618 511.314 390.151 478.337 382.81C445.36 375.468 413.105 393.964 406.444 424.037C399.759 454.104 421.195 484.554 454.144 491.912C487.121 499.253 519.375 480.757 526.06 450.69ZM422.66 427.646C427.51 405.732 451.005 392.269 475.058 397.62C499.082 402.987 514.675 425.141 509.825 447.054C504.952 468.962 481.471 482.475 457.423 477.102C433.417 471.761 417.81 449.559 422.66 427.646Z" fill="#B89635" fill-opacity="0.83"/>
<path d="M544.287 454.758C542.991 460.654 540.903 466.21 538.183 471.373C539.47 470.964 540.795 470.608 542.125 470.231C542.738 470.053 543.351 469.876 543.963 469.698C545.212 469.348 546.466 468.976 547.734 468.653C549.818 468.131 551.955 467.598 554.1 467.135C554.499 467.021 554.917 466.935 555.335 466.849C556.345 466.671 557.323 466.418 558.315 466.214C559.175 463.643 559.922 461.024 560.537 458.329C571.053 410.924 537.297 362.945 485.285 351.374C482.353 350.705 479.41 350.193 476.461 349.815C475.839 350.58 475.146 351.329 474.476 352.084C474.275 352.31 474.064 352.579 473.835 352.822C472.4 354.422 470.951 355.974 469.456 357.515C468.677 358.313 467.898 359.11 467.095 359.902C466.522 360.452 465.949 361.002 465.371 361.573C464.506 362.419 463.665 363.27 462.753 364.105C469.079 364.074 475.545 364.733 482.01 366.163C525.075 375.738 553.001 415.47 544.292 454.737L544.287 454.758Z" fill="#B89635" fill-opacity="0.83"/>
<path d="M578.759 462.418C578.685 462.741 578.611 463.065 578.542 463.366C584.175 462.882 589.911 462.603 595.663 462.578C607.446 400.131 563.623 337.835 496.02 320.893C493.555 325.592 490.849 330.146 487.946 334.586C488.305 334.646 488.641 334.699 488.996 334.78C551.02 348.59 591.336 405.867 578.778 462.445L578.759 462.418Z" fill="#B89635" fill-opacity="0.83"/>
<path d="M371.972 416.377C361.461 463.76 395.217 511.74 447.201 523.327C450.161 523.98 453.128 524.497 456.048 524.891C456.665 524.148 457.291 523.474 457.928 522.758C458.2 522.434 458.502 522.095 458.798 521.777C460.166 520.252 461.552 518.754 462.986 517.267C463.866 516.356 464.787 515.478 465.667 514.567L466.909 513.376C467.864 512.46 468.8 511.517 469.779 510.606C463.454 510.638 456.992 509.957 450.532 508.506C407.467 498.931 379.541 459.199 388.241 419.975C389.536 414.079 391.606 408.496 394.349 403.339C393.114 403.737 391.865 404.088 390.588 404.454C389.866 404.675 389.125 404.869 388.356 405.079C387.187 405.402 386.019 405.725 384.851 406.048C382.709 406.603 380.525 407.125 378.351 407.604C377.986 407.68 377.644 407.76 377.302 407.841C376.258 408.057 375.233 408.299 374.17 408.487C373.31 411.058 372.61 413.688 371.996 416.383L371.972 416.377Z" fill="#B89635" fill-opacity="0.83"/>
<path d="M436.479 553.856C438.949 549.135 441.65 544.603 444.554 540.163C444.223 540.087 443.863 540.028 443.508 539.947C381.461 526.132 341.191 468.865 353.722 412.304C353.795 411.981 353.893 411.663 353.962 411.361C348.329 411.845 342.594 412.124 336.846 412.128C325.058 474.597 368.858 536.887 436.479 553.856Z" fill="#B89635" fill-opacity="0.83"/>
<path d="M301.478 409.163C289.192 485.806 342.39 561.421 424.43 583.993C424.869 582.505 425.327 581.045 425.784 579.584C426.85 576.221 427.987 572.875 429.279 569.609C354.766 549.48 306.486 480.77 317.972 411.338C314.393 410.998 310.805 410.587 307.194 410.059C305.292 409.783 303.389 409.508 301.473 409.184L301.478 409.163Z" fill="#B89635" fill-opacity="0.83"/>
<path d="M114.11 352.356C188.618 372.507 236.927 441.201 225.417 510.627C229.025 510.951 232.626 511.41 236.237 511.939C238.116 512.209 239.999 512.457 241.887 512.797C254.168 436.176 200.98 360.517 118.935 337.967C118.426 339.87 117.833 341.707 117.216 343.54C116.262 346.52 115.214 349.479 114.115 352.335L114.11 352.356Z" fill="#B89635" fill-opacity="0.83"/>
<path d="M136.945 497.928C143.607 467.855 122.199 437.389 89.2216 430.047C56.2446 422.706 23.9901 441.202 17.3286 471.275C10.6434 501.342 32.08 531.792 65.0285 539.15C98.0055 546.491 130.26 527.995 136.945 497.928ZM33.5452 474.883C38.395 452.97 61.8895 439.506 85.9425 444.857C109.967 450.225 125.56 472.379 120.71 494.292C115.836 516.2 92.3557 529.712 68.3076 524.34C44.302 518.999 28.6953 496.796 33.5452 474.883Z" fill="#B89635" fill-opacity="0.83"/>
<path d="M155.197 502.001C153.902 507.897 151.813 513.453 149.093 518.616C150.381 518.207 151.706 517.851 153.035 517.474C153.648 517.297 154.261 517.119 154.873 516.941C156.122 516.591 157.376 516.219 158.644 515.896C160.728 515.374 162.865 514.841 165.01 514.378C165.409 514.265 165.827 514.178 166.245 514.092C167.255 513.915 168.234 513.661 169.226 513.457C170.086 510.886 170.832 508.267 171.447 505.572C181.963 458.168 148.207 410.188 96.1948 398.617C93.2628 397.949 90.32 397.436 87.3713 397.058C86.749 397.823 86.0558 398.572 85.3861 399.327C85.1853 399.553 84.9745 399.823 84.7451 400.065C83.3103 401.665 81.8617 403.217 80.3658 404.758C79.5869 405.556 78.808 406.353 78.0054 407.146C77.4322 407.695 76.859 408.245 76.281 408.816C75.4163 409.662 74.5753 410.513 73.6634 411.349C79.9889 411.318 86.4556 411.976 92.9205 413.406C135.985 422.981 163.911 462.713 155.202 501.98L155.197 502.001Z" fill="#B89635" fill-opacity="0.83"/>
<path d="M189.646 509.656C189.572 509.979 189.498 510.302 189.429 510.604C195.062 510.12 200.797 509.841 206.55 509.815C218.333 447.368 174.51 385.072 106.907 368.131C104.441 372.83 101.736 377.383 98.8324 381.824C99.192 381.883 99.5279 381.937 99.8826 382.018C161.907 395.828 202.223 453.105 189.664 509.683L189.646 509.656Z" fill="#B89635" fill-opacity="0.83"/>
<path d="M519.18 116.642C593.688 136.792 641.997 205.486 630.487 274.912C634.095 275.237 637.697 275.695 641.307 276.224C643.186 276.494 645.07 276.742 646.957 277.082C659.238 200.461 606.05 124.802 524.005 102.252C523.496 104.155 522.903 105.993 522.286 107.825C521.333 110.805 520.284 113.764 519.185 116.62L519.18 116.642Z" fill="#B89635" fill-opacity="0.83"/>
<path d="M542.014 262.214C548.675 232.141 527.267 201.675 494.29 194.333C461.313 186.991 429.058 205.488 422.397 235.56C415.712 265.627 437.148 296.077 470.097 303.435C503.074 310.777 535.328 292.281 542.014 262.214ZM438.613 239.169C443.463 217.256 466.958 203.792 491.011 209.143C515.035 214.51 530.628 236.665 525.778 258.578C520.905 280.485 497.424 293.998 473.376 288.625C449.37 283.285 433.764 261.082 438.613 239.169Z" fill="#B89635" fill-opacity="0.83"/>
<path d="M560.265 266.286C558.97 272.182 556.882 277.738 554.161 282.901C555.449 282.492 556.774 282.136 558.104 281.759C558.716 281.581 559.329 281.404 559.942 281.226C561.191 280.876 562.445 280.504 563.712 280.181C565.797 279.659 567.933 279.126 570.079 278.663C570.478 278.549 570.895 278.463 571.313 278.377C572.324 278.199 573.302 277.946 574.294 277.742C575.154 275.171 575.901 272.552 576.515 269.857C587.031 222.452 553.275 174.473 501.263 162.902C498.331 162.233 495.388 161.721 492.44 161.343C491.817 162.108 491.124 162.857 490.454 163.612C490.254 163.838 490.043 164.107 489.813 164.35C488.379 165.95 486.93 167.502 485.434 169.043C484.655 169.841 483.876 170.638 483.074 171.431C482.501 171.98 481.927 172.53 481.349 173.101C480.485 173.947 479.644 174.798 478.732 175.634C485.057 175.602 491.524 176.261 497.989 177.691C541.053 187.266 568.979 226.998 560.27 266.265L560.265 266.286Z" fill="#B89635" fill-opacity="0.83"/>
<path d="M594.712 273.94C594.638 274.264 594.564 274.587 594.496 274.889C600.128 274.405 605.864 274.126 611.616 274.1C623.399 211.653 579.576 149.357 511.973 132.415C509.508 137.114 506.802 141.668 503.899 146.109C504.258 146.168 504.594 146.222 504.949 146.303C566.973 160.112 607.29 217.39 594.731 273.967L594.712 273.94Z" fill="#B89635" fill-opacity="0.83"/>
<path d="M387.927 227.9C377.416 275.283 411.172 323.263 463.156 334.85C466.116 335.502 469.083 336.02 472.003 336.414C472.62 335.671 473.247 334.997 473.883 334.28C474.155 333.957 474.457 333.618 474.753 333.3C476.121 331.775 477.508 330.277 478.941 328.789C479.821 327.879 480.742 327 481.622 326.09L482.864 324.899C483.819 323.983 484.756 323.04 485.734 322.129C479.409 322.16 472.947 321.48 466.487 320.029C423.422 310.454 395.496 270.722 404.196 231.498C405.491 225.602 407.561 220.019 410.305 214.862C409.069 215.26 407.82 215.61 406.543 215.977C405.821 216.198 405.08 216.391 404.311 216.601C403.142 216.925 401.974 217.248 400.806 217.571C398.664 218.126 396.481 218.648 394.307 219.127C393.941 219.203 393.599 219.283 393.257 219.364C392.213 219.579 391.188 219.822 390.125 220.01C389.265 222.581 388.565 225.211 387.951 227.906L387.927 227.9Z" fill="#B89635" fill-opacity="0.83"/>
<path d="M452.434 365.38C454.904 360.659 457.605 356.127 460.509 351.686C460.178 351.611 459.818 351.551 459.463 351.471C397.416 337.656 357.146 280.389 369.677 223.828C369.75 223.504 369.848 223.186 369.917 222.884C364.284 223.368 358.549 223.647 352.801 223.652C341.013 286.12 384.813 348.411 452.434 365.38Z" fill="#B89635" fill-opacity="0.83"/>
<path d="M317.457 220.691C305.171 297.334 358.369 372.95 440.409 395.521C440.848 394.034 441.305 392.573 441.763 391.113C442.828 387.75 443.965 384.403 445.257 381.137C370.744 361.009 322.464 292.298 333.95 222.866C330.371 222.526 326.783 222.116 323.173 221.587C321.27 221.312 319.368 221.036 317.452 220.713L317.457 220.691Z" fill="#B89635" fill-opacity="0.83"/>
<path d="M180.614 43.1905C255.122 63.3406 303.431 132.035 291.921 201.461C295.528 201.785 299.13 202.244 302.741 202.773C304.62 203.043 306.503 203.291 308.391 203.631C320.672 127.01 267.484 51.3511 185.439 28.8012C184.93 30.7037 184.337 32.5414 183.72 34.3737C182.766 37.354 181.718 40.3127 180.619 43.1689L180.614 43.1905Z" fill="#B89635" fill-opacity="0.83"/>
<path d="M203.469 188.789C210.13 158.717 188.722 128.25 155.745 120.909C122.768 113.567 90.5135 132.063 83.852 162.136C77.1668 192.203 98.6034 222.653 131.552 230.011C164.529 237.353 196.783 218.856 203.469 188.789ZM100.069 165.745C104.918 143.832 128.413 130.368 152.466 135.719C176.49 141.086 192.083 163.24 187.233 185.153C182.36 207.061 158.879 220.574 134.831 215.201C110.825 209.861 95.2187 187.658 100.069 165.745Z" fill="#B89635" fill-opacity="0.83"/>
<path d="M221.699 192.835C220.404 198.731 218.315 204.287 215.595 209.45C216.883 209.041 218.207 208.685 219.537 208.308C220.15 208.131 220.763 207.953 221.375 207.775C222.624 207.425 223.878 207.053 225.146 206.73C227.23 206.208 229.367 205.675 231.512 205.212C231.911 205.098 232.329 205.012 232.747 204.926C233.757 204.749 234.736 204.495 235.727 204.291C236.588 201.72 237.334 199.101 237.949 196.406C248.465 149.002 214.709 101.022 162.697 89.4514C159.765 88.7825 156.822 88.2699 153.873 87.8921C153.251 88.6573 152.558 89.4063 151.888 90.1607C151.687 90.387 151.476 90.6565 151.247 90.899C149.812 92.4994 148.364 94.0513 146.868 95.5924C146.089 96.3899 145.31 97.1875 144.507 97.9796C143.934 98.5292 143.361 99.0788 142.783 99.65C141.918 100.496 141.077 101.347 140.165 102.183C146.491 102.151 152.958 102.81 159.422 104.24C202.487 113.815 230.413 153.547 221.704 192.814L221.699 192.835Z" fill="#B89635" fill-opacity="0.83"/>
<path d="M256.165 200.516C256.091 200.839 256.017 201.163 255.949 201.465C261.581 200.981 267.317 200.701 273.069 200.676C284.852 138.229 241.029 75.9328 173.426 58.9909C170.961 63.6902 168.255 68.2438 165.352 72.6843C165.712 72.7437 166.047 72.7976 166.402 72.8785C228.426 86.688 268.743 143.966 256.184 200.543L256.165 200.516Z" fill="#B89635" fill-opacity="0.83"/>
<path d="M49.3801 154.476C38.869 201.859 72.6251 249.838 124.609 261.425C127.569 262.078 130.536 262.596 133.456 262.99C134.073 262.246 134.7 261.573 135.336 260.856C135.609 260.533 135.91 260.193 136.206 259.875C137.574 258.35 138.961 256.852 140.394 255.365C141.274 254.454 142.196 253.576 143.075 252.666L144.317 251.475C145.272 250.559 146.209 249.616 147.188 248.705C140.862 248.736 134.4 248.056 127.94 246.605C84.8756 237.03 56.9495 197.298 65.649 158.074C66.9443 152.178 69.014 146.595 71.7577 141.437C70.5225 141.836 69.2735 142.186 67.9959 142.552C67.2739 142.773 66.5331 142.967 65.7638 143.177C64.5955 143.5 63.4273 143.823 62.259 144.147C60.1175 144.701 57.9337 145.224 55.7597 145.703C55.3942 145.778 55.0524 145.859 54.7106 145.94C53.6664 146.155 52.641 146.398 51.5781 146.586C50.718 149.157 50.0185 151.787 49.4038 154.481L49.3801 154.476Z" fill="#B89635" fill-opacity="0.83"/>
<path d="M113.888 291.955C116.358 287.235 119.058 282.702 121.962 278.262C121.631 278.186 121.271 278.127 120.916 278.046C58.8688 264.231 18.5996 206.964 31.1299 150.403C31.2036 150.08 31.3011 149.762 31.3699 149.46C25.7371 149.944 20.0018 150.223 14.2545 150.227C2.46615 212.696 46.2659 274.986 113.888 291.955Z" fill="#B89635" fill-opacity="0.83"/>
<path d="M-21.1138 147.261C-33.3995 223.904 19.7984 299.52 101.839 322.091C102.277 320.604 102.735 319.143 103.192 317.683C104.258 314.32 105.395 310.973 106.687 307.707C32.1743 287.579 -16.1062 218.868 -4.61986 149.437C-8.19897 149.096 -11.787 148.686 -15.3977 148.157C-17.3001 147.882 -19.2025 147.607 -21.1187 147.283L-21.1138 147.261Z" fill="#B89635" fill-opacity="0.83"/>
<path d="M87.2537 339.562C68.328 407.364 -4.4505 449.093 -80.4268 435.706C-80.6345 439.015 -80.9889 442.314 -81.4192 445.617C-81.6373 447.337 -81.8317 449.061 -82.1257 450.786C1.70746 465.171 81.8651 419.23 103.098 344.583C101.009 344.038 98.9861 343.418 96.9683 342.776C93.6884 341.778 90.4282 340.694 87.2773 339.567L87.2537 339.562Z" fill="#B89635" fill-opacity="0.83"/>
<path d="M-70.1717 354.767C-37.1947 362.109 -4.91658 343.618 1.74493 313.546C8.40644 283.473 -13.0065 253.029 -45.9835 245.687C-78.9556 238.324 -111.215 256.841 -117.895 286.887C-124.557 316.96 -103.144 347.404 -70.1717 354.767ZM-49.2577 260.475C-25.2284 265.821 -9.64054 287.997 -14.4953 309.932C-19.3687 331.839 -42.8396 345.309 -66.8689 339.963C-90.8934 334.596 -106.533 312.43 -101.655 290.501C-96.8102 268.61 -73.2871 255.129 -49.2577 260.475Z" fill="#B89635" fill-opacity="0.83"/>
<path d="M-73.8632 371.388C-80.3282 369.959 -86.4555 367.812 -92.1801 365.1C-91.6831 366.302 -91.2433 367.537 -90.7798 368.776C-90.5619 369.348 -90.344 369.919 -90.1261 370.49C-89.6952 371.655 -89.2406 372.824 -88.8383 374.005C-88.1864 375.945 -87.5207 377.934 -86.9309 379.928C-86.7918 380.3 -86.6814 380.688 -86.5709 381.076C-86.3371 382.014 -86.0225 382.925 -85.7601 383.847C-82.9295 384.742 -80.0507 385.535 -77.095 386.209C-25.1113 397.796 25.72 368.637 36.2173 321.206C36.8271 318.533 37.2666 315.843 37.5592 313.143C36.7019 312.539 35.8593 311.871 35.0119 311.224C34.7576 311.03 34.4562 310.825 34.1832 310.604C32.3848 309.218 30.6386 307.822 28.9023 306.383C28.0036 305.634 27.1049 304.884 26.2111 304.113C25.5903 303.563 24.9694 303.014 24.3249 302.458C23.3701 301.628 22.4103 300.82 21.4652 299.946C21.753 305.773 21.2961 311.701 20.0008 317.597C11.3152 356.869 -30.7798 380.99 -73.8395 371.394L-73.8632 371.388Z" fill="#B89635" fill-opacity="0.83"/>
<path d="M-80.8116 402.824C-81.1663 402.743 -81.5209 402.663 -81.852 402.587C-81.0994 407.793 -80.5655 413.086 -80.3065 418.384C-11.9108 431.742 54.0885 393.888 69.8019 332.315C64.5916 329.856 59.53 327.182 54.5836 324.33C54.5335 324.659 54.4883 324.966 54.4145 325.289C41.8842 381.851 -18.7973 416.677 -80.8401 402.841L-80.8116 402.824Z" fill="#B89635" fill-opacity="0.83"/>
<path d="M-28.5463 134.567C-16.2607 57.9243 -69.4584 -17.6912 -151.499 -40.2627C-151.937 -38.7753 -152.395 -37.3148 -152.853 -35.8543C-153.918 -32.4914 -155.055 -29.1447 -156.347 -25.8788C-81.8343 -5.75033 -33.5539 62.9602 -45.0402 132.392C-41.4611 132.732 -37.8731 133.142 -34.2624 133.671C-32.36 133.947 -30.4576 134.222 -28.5414 134.546L-28.5463 134.567Z" fill="#B89635" fill-opacity="0.83"/>
<path d="M425.209 404.481C406.283 472.283 333.505 514.011 257.528 500.625C257.321 503.934 256.966 507.233 256.536 510.536C256.318 512.256 256.123 513.98 255.829 515.705C339.662 530.09 419.82 484.148 441.053 409.501C438.964 408.957 436.941 408.337 434.923 407.695C431.643 406.697 428.383 405.613 425.232 404.486L425.209 404.481Z" fill="#B89635" fill-opacity="0.83"/>
<path d="M267.783 419.686C300.76 427.028 333.038 408.537 339.7 378.464C346.362 348.392 324.949 317.947 291.972 310.606C258.999 303.242 226.74 321.76 220.06 351.806C213.398 381.878 234.811 412.323 267.783 419.686ZM288.697 325.394C312.727 330.74 328.315 352.916 323.46 374.85C318.586 396.758 295.115 410.227 271.086 404.882C247.062 399.514 231.422 377.349 236.3 355.42C241.145 333.528 264.668 320.048 288.697 325.394Z" fill="#B89635" fill-opacity="0.83"/>
<path d="M264.09 436.307C257.625 434.878 251.498 432.731 245.773 430.019C246.27 431.221 246.71 432.456 247.173 433.695C247.391 434.267 247.609 434.838 247.827 435.409C248.258 436.574 248.713 437.743 249.115 438.924C249.767 440.864 250.432 442.853 251.022 444.847C251.161 445.219 251.272 445.607 251.382 445.995C251.616 446.933 251.931 447.844 252.193 448.766C255.024 449.661 257.902 450.454 260.858 451.128C312.842 462.715 363.673 433.556 374.17 386.125C374.78 383.452 375.22 380.762 375.512 378.062C374.655 377.458 373.813 376.79 372.965 376.143C372.711 375.949 372.409 375.744 372.136 375.523C370.338 374.138 368.592 372.741 366.855 371.302C365.957 370.553 365.058 369.803 364.164 369.032C363.543 368.483 362.923 367.933 362.278 367.377C361.323 366.547 360.363 365.739 359.418 364.865C359.706 370.691 359.249 376.62 357.954 382.516C349.268 421.788 307.173 445.909 264.114 436.313L264.09 436.307Z" fill="#B89635" fill-opacity="0.83"/>
<path d="M257.143 467.743C256.789 467.662 256.434 467.581 256.103 467.506C256.856 472.712 257.389 478.005 257.648 483.303C326.044 496.661 392.043 458.807 407.757 397.234C402.547 394.775 397.485 392.101 392.539 389.249C392.489 389.578 392.443 389.885 392.37 390.208C379.839 446.769 319.158 481.596 257.115 467.759L257.143 467.743Z" fill="#B89635" fill-opacity="0.83"/>
<path d="M298.917 279.169C246.957 267.588 196.126 296.746 185.61 344.151C185.019 346.851 184.574 349.562 184.263 352.235C185.097 352.834 185.855 353.437 186.66 354.052C187.022 354.316 187.404 354.607 187.761 354.893C189.475 356.214 191.16 357.551 192.835 358.931C193.861 359.777 194.853 360.661 195.879 361.508L197.224 362.699C198.259 363.615 199.322 364.516 200.352 365.454C200.064 359.627 200.545 353.704 201.864 347.814C210.55 308.542 252.644 284.421 295.657 294.006C302.122 295.436 308.278 297.566 313.997 300.3C313.514 299.146 313.083 297.982 312.634 296.791C312.364 296.117 312.124 295.427 311.865 294.71C311.466 293.621 311.068 292.533 310.669 291.444C309.98 289.45 309.324 287.418 308.716 285.396C308.619 285.057 308.517 284.739 308.416 284.421C308.14 283.451 307.835 282.497 307.587 281.51C304.757 280.615 301.868 279.865 298.912 279.191L298.917 279.169Z" fill="#B89635" fill-opacity="0.83"/>
<path d="M151.975 333.053C157.209 335.517 162.247 338.186 167.193 341.038C167.262 340.736 167.312 340.407 167.386 340.084C179.921 283.501 240.593 248.718 302.617 262.527C302.972 262.608 303.321 262.711 303.652 262.786C302.9 257.58 302.366 252.287 302.131 246.994C233.711 233.631 167.717 271.464 151.975 333.053Z" fill="#B89635" fill-opacity="0.83"/>
<path d="M303.936 214.544C220.079 200.154 139.969 246.106 118.712 320.747C120.347 321.211 121.954 321.691 123.561 322.171C127.261 323.288 130.947 324.469 134.551 325.79C153.453 257.982 226.251 216.281 302.232 229.645C302.458 226.363 302.76 223.076 303.191 219.772C303.414 218.031 303.637 216.29 303.912 214.539L303.936 214.544Z" fill="#B89635" fill-opacity="0.83"/>
<path d="M606.947 -45.2017C613.609 -75.2743 592.201 -105.74 559.224 -113.082C526.247 -120.424 493.992 -101.928 487.331 -71.8551C480.645 -41.7879 502.082 -11.3379 535.03 -3.98008C568.008 3.36159 600.262 -15.1346 606.947 -45.2017ZM503.547 -68.2463C508.397 -90.1594 531.892 -103.623 555.945 -98.2722C579.969 -92.9048 595.562 -70.7506 590.712 -48.8375C585.838 -26.9298 562.358 -13.4173 538.31 -18.79C514.304 -24.1304 498.697 -46.3332 503.547 -68.2463Z" fill="#B89635" fill-opacity="0.83"/>
<path d="M452.859 -79.5151C442.348 -32.1319 476.104 15.8474 528.087 27.4344C531.048 28.0871 534.014 28.6051 536.934 28.9991C537.552 28.2555 538.178 27.5819 538.814 26.8652C539.087 26.5419 539.388 26.2024 539.685 25.8845C541.053 24.3595 542.439 22.8615 543.873 21.3742C544.752 20.4636 545.674 19.5852 546.554 18.6746L547.795 17.4837C548.751 16.5677 549.687 15.6247 550.666 14.714C544.341 14.7451 537.879 14.0648 531.419 12.6137C488.354 3.03878 460.428 -36.6933 469.127 -75.9171C470.423 -81.813 472.493 -87.3962 475.236 -92.5535C474.001 -92.1549 472.752 -91.8048 471.474 -91.4386C470.752 -91.2178 470.012 -91.0239 469.242 -90.8138C468.074 -90.4907 466.906 -90.1675 465.738 -89.8444C463.596 -89.2897 461.412 -88.7673 459.238 -88.2881C458.873 -88.2127 458.531 -88.1319 458.189 -88.0511C457.145 -87.8357 456.12 -87.5934 455.057 -87.405C454.197 -84.8343 453.497 -82.2044 452.882 -79.5097L452.859 -79.5151Z" fill="#B89635" fill-opacity="0.83"/>
<path d="M517.343 57.9592C519.813 53.2384 522.513 48.7063 525.417 44.2659C525.086 44.1903 524.726 44.131 524.371 44.0501C462.324 30.2352 422.055 -27.0316 434.585 -83.5929C434.659 -83.9162 434.756 -84.2342 434.825 -84.536C429.192 -84.0521 423.457 -83.7729 417.71 -83.7687C405.921 -21.3003 449.721 40.9903 517.343 57.9592Z" fill="#B89635" fill-opacity="0.83"/>
<path d="M382.365 -86.7293C370.079 -10.0864 423.277 65.5292 505.317 88.1006C505.756 86.6132 506.213 85.1527 506.671 83.6922C507.737 80.3294 508.873 76.9826 510.166 73.7168C435.653 53.5883 387.372 -15.1222 398.859 -84.554C395.279 -84.8943 391.691 -85.3046 388.081 -85.8335C386.178 -86.1087 384.276 -86.3839 382.36 -86.7077L382.365 -86.7293Z" fill="#B89635" fill-opacity="0.83"/>
<path d="M153.101 26.1652C134.176 93.9679 61.3972 135.696 -14.5792 122.31C-14.7868 125.619 -15.1413 128.917 -15.5716 132.221C-15.7897 133.94 -15.9842 135.665 -16.2781 137.389C67.5551 151.774 147.713 105.833 168.946 31.186C166.856 30.6413 164.834 30.0211 162.816 29.3793C159.536 28.3816 156.276 27.2976 153.125 26.1706L153.101 26.1652Z" fill="#B89635" fill-opacity="0.83"/>
<path d="M-4.32209 41.3704C28.6549 48.7121 60.9331 30.2213 67.5946 0.148724C74.2561 -29.9239 52.8432 -60.3684 19.8661 -67.7101C-13.106 -75.0733 -45.3654 -56.5557 -52.0457 -26.51C-58.7072 3.56256 -37.2942 34.0071 -4.32209 41.3704ZM16.5919 -52.9217C40.6213 -47.5759 56.2092 -25.4001 51.3544 -3.46545C46.4809 18.4423 23.01 31.9116 -1.01932 26.5658C-25.0437 21.1985 -40.6838 -0.966529 -35.8054 -22.8958C-30.9605 -44.7874 -7.43738 -58.2675 16.5919 -52.9217Z" fill="#B89635" fill-opacity="0.83"/>
<path d="M-8.01554 57.9912C-14.4805 56.5617 -20.6078 54.4154 -26.3324 51.7034C-25.8355 52.9053 -25.3957 54.1396 -24.9322 55.3793C-24.7143 55.9506 -24.4964 56.522 -24.2784 57.0933C-23.8475 58.2576 -23.393 59.4272 -22.9906 60.6076C-22.3387 62.548 -21.6731 64.5369 -21.0832 66.5311C-20.9442 66.903 -20.8337 67.2911 -20.7232 67.6792C-20.4894 68.617 -20.1749 69.5279 -19.9125 70.4496C-17.0819 71.3448 -14.203 72.1376 -11.2474 72.8119C40.7364 84.3989 91.5677 55.2404 102.065 7.80872C102.675 5.13561 103.114 2.44629 103.407 -0.253831C102.55 -0.857633 101.707 -1.5261 100.86 -2.17302C100.605 -2.3671 100.304 -2.57197 100.031 -2.793C98.2324 -4.17847 96.4863 -5.57471 94.75 -7.01407C93.8513 -7.7634 92.9525 -8.51272 92.0587 -9.28361C91.4379 -9.83347 90.8171 -10.3833 90.1726 -10.9386C89.2177 -11.7687 88.2579 -12.5774 87.3128 -13.4507C87.6006 -7.62449 87.1436 -1.69602 85.8483 4.19993C77.1627 43.4721 35.0678 67.5931 -7.99187 57.9966L-8.01554 57.9912Z" fill="#B89635" fill-opacity="0.83"/>
<path d="M-14.962 89.4274C-15.3167 89.3465 -15.6713 89.2656 -16.0024 89.19C-15.2498 94.3965 -14.7159 99.6892 -14.4569 104.987C53.9388 118.345 119.938 80.4909 135.651 18.9179C130.441 16.4593 125.38 13.785 120.433 10.933C120.383 11.2617 120.338 11.5689 120.264 11.8923C107.734 68.4535 47.0522 103.28 -14.9906 89.4435L-14.962 89.4274Z" fill="#B89635" fill-opacity="0.83"/>
<path d="M26.8118 -99.1464C-25.1483 -110.728 -75.9796 -81.5695 -86.4956 -34.1648C-87.0867 -31.4647 -87.531 -28.7539 -87.8423 -26.0807C-87.0087 -25.4823 -86.251 -24.8785 -85.4459 -24.2639C-85.0833 -23.9998 -84.7019 -23.7087 -84.3442 -23.423C-82.6306 -22.1022 -80.9455 -20.7652 -79.2703 -19.3851C-78.2444 -18.5388 -77.2521 -17.6547 -76.2263 -16.8083L-74.8812 -15.617C-73.8464 -14.7005 -72.7831 -13.8003 -71.7533 -12.8623C-72.0411 -18.6885 -71.5606 -24.6115 -70.2416 -30.5021C-61.556 -69.7743 -19.4611 -93.8953 23.5513 -84.3096C30.0163 -82.8801 36.1722 -80.7499 41.8919 -78.0163C41.4088 -79.1698 40.9779 -80.334 40.5282 -81.5252C40.259 -82.1989 40.0184 -82.8889 39.7591 -83.6057C39.3607 -84.6945 38.9623 -85.7833 38.5639 -86.8721C37.8746 -88.8663 37.2187 -90.8983 36.6102 -92.9196C36.5135 -93.2591 36.4119 -93.5771 36.3103 -93.8951C36.0341 -94.8653 35.7294 -95.8193 35.4818 -96.8056C32.6512 -97.7009 29.7625 -98.4506 26.8068 -99.1249L26.8118 -99.1464Z" fill="#B89635" fill-opacity="0.83"/>
<path d="M490.115 97.0608C471.189 164.863 398.411 206.592 322.434 193.205C322.227 196.514 321.872 199.813 321.442 203.116C321.224 204.836 321.03 206.56 320.736 208.285C404.569 222.67 484.726 176.729 505.96 102.082C503.87 101.537 501.847 100.917 499.83 100.275C496.55 99.2771 493.29 98.1932 490.139 97.0662L490.115 97.0608Z" fill="#B89635" fill-opacity="0.83"/>
<path d="M332.69 112.266C365.667 119.608 397.945 101.117 404.606 71.0447C411.268 40.9721 389.855 10.5276 356.878 3.18589C323.906 -4.17734 291.646 14.3403 284.966 44.386C278.305 74.4586 299.718 104.903 332.69 112.266ZM353.604 17.9743C377.633 23.3201 393.221 45.4959 388.366 67.4305C383.493 89.3383 360.022 102.808 335.992 97.4618C311.968 92.0945 296.328 69.9295 301.206 48.0002C306.051 26.1086 329.574 12.6285 353.604 17.9743Z" fill="#B89635" fill-opacity="0.83"/>
<path d="M328.996 128.887C322.531 127.458 316.404 125.311 310.679 122.599C311.176 123.801 311.616 125.036 312.079 126.275C312.297 126.847 312.515 127.418 312.733 127.989C313.164 129.154 313.619 130.323 314.021 131.504C314.673 133.444 315.339 135.433 315.928 137.427C316.068 137.799 316.178 138.187 316.288 138.575C316.522 139.513 316.837 140.424 317.099 141.346C319.93 142.241 322.809 143.034 325.764 143.708C377.748 155.295 428.579 126.136 439.077 78.7047C439.687 76.0316 440.126 73.3423 440.418 70.6422C439.561 70.0383 438.719 69.3699 437.871 68.723C437.617 68.5289 437.316 68.324 437.043 68.103C435.244 66.7175 433.498 65.3213 431.762 63.8819C430.863 63.1326 429.964 62.3833 429.07 61.6124C428.45 61.0625 427.829 60.5127 427.184 59.9574C426.229 59.1272 425.27 58.3186 424.325 57.4453C424.612 63.2715 424.155 69.2 422.86 75.0959C414.174 114.368 372.079 138.489 329.02 128.893L328.996 128.887Z" fill="#B89635" fill-opacity="0.83"/>
<path d="M322.05 160.323C321.695 160.242 321.34 160.162 321.009 160.086C321.762 165.292 322.296 170.585 322.555 175.883C390.951 189.241 456.95 151.387 472.663 89.8139C467.453 87.3553 462.391 84.681 457.445 81.8289C457.395 82.1577 457.35 82.4649 457.276 82.7883C444.746 139.35 384.064 174.176 322.021 160.34L322.05 160.323Z" fill="#B89635" fill-opacity="0.83"/>
<path d="M363.823 -28.2504C311.863 -39.832 261.032 -10.6735 250.516 36.7312C249.925 39.4313 249.481 42.1421 249.169 44.8153C250.003 45.4137 250.761 46.0175 251.566 46.6321C251.928 46.8962 252.31 47.1873 252.667 47.473C254.381 48.7938 256.066 50.1308 257.741 51.5108C258.767 52.3572 259.76 53.2413 260.785 54.0877L262.131 55.279C263.165 56.1955 264.229 57.0957 265.258 58.0337C264.971 52.2075 265.451 46.2845 266.77 40.3939C275.456 1.12168 317.551 -22.9993 360.563 -13.4136C367.028 -11.9841 373.184 -9.85394 378.904 -7.12031C378.42 -8.27377 377.99 -9.43801 377.54 -10.6292C377.271 -11.3029 377.03 -11.9929 376.771 -12.7097C376.372 -13.7985 375.974 -14.8873 375.576 -15.9761C374.886 -17.9704 374.23 -20.0023 373.622 -22.0236C373.525 -22.3631 373.424 -22.6811 373.322 -22.9991C373.046 -23.9693 372.741 -24.9233 372.494 -25.9096C369.663 -26.8049 366.774 -27.5546 363.819 -28.2289L363.823 -28.2504Z" fill="#B89635" fill-opacity="0.83"/>
<path d="M216.885 25.6114C222.119 28.0755 227.157 30.7444 232.103 33.5964C232.172 33.2946 232.222 32.9658 232.296 32.6425C244.831 -23.9403 305.503 -58.7236 367.527 -44.9142C367.882 -44.8333 368.231 -44.7308 368.562 -44.6553C367.81 -49.8618 367.276 -55.1544 367.041 -60.4471C298.621 -73.8104 232.627 -35.9777 216.885 25.6114Z" fill="#B89635" fill-opacity="0.83"/>
<path d="M368.842 -92.8758C284.985 -107.266 204.875 -61.3141 183.618 13.3275C185.253 13.7913 186.86 14.2713 188.467 14.7513C192.168 15.8677 195.853 17.0487 199.458 18.3699C218.36 -49.4382 291.157 -91.1394 367.138 -77.7745C367.364 -81.0567 367.667 -84.3443 368.097 -87.648C368.32 -89.3888 368.543 -91.1296 368.818 -92.8812L368.842 -92.8758Z" fill="#B89635" fill-opacity="0.83"/>
</g>
</g>
<defs>
<clipPath id="clip0_1032_14833">
<rect width="552" height="424" fill="white"/>
</clipPath>
</defs>
</svg>
