<svg width="272" height="319" viewBox="0 0 272 319" fill="none" xmlns="http://www.w3.org/2000/svg">
<path d="M271.453 279.169C271.453 280.363 270.453 281.339 269.229 281.339C268.004 281.339 267.004 280.363 267.004 279.169C267.004 277.975 268.004 277 269.229 277C270.453 277 271.453 277.975 271.453 279.169Z" fill="black"/>
<path d="M250.637 307.977C250.637 309.171 249.637 310.146 248.412 310.146C247.188 310.146 246.188 309.171 246.188 307.977C246.188 306.783 247.188 305.808 248.412 305.808C249.637 305.808 250.637 306.783 250.637 307.977Z" fill="black"/>
<path d="M244.133 307.977C244.133 309.171 243.133 310.146 241.908 310.146C240.684 310.146 239.684 309.171 239.684 307.977C239.684 306.783 240.684 305.808 241.908 305.808C243.133 305.808 244.133 306.783 244.133 307.977Z" fill="black"/>
<path d="M197.97 283.373C192.589 283.373 188.467 287.494 188.467 292.909C188.467 295.684 189.554 298.122 191.347 299.837H181V310.146H184.122V302.427H198.108C198.504 302.427 198.884 302.41 199.263 302.36L199.453 302.326C199.608 302.31 199.763 302.276 199.919 302.242C200.212 302.175 200.505 302.108 200.781 302.024L201.195 301.889L201.54 301.771C205.075 300.409 207.489 297.029 207.489 292.892C207.489 287.494 203.368 283.357 197.987 283.357M197.987 299.753C194.193 299.753 191.347 296.827 191.347 292.892C191.347 288.957 194.193 286.031 197.987 286.031C201.781 286.031 204.627 288.99 204.627 292.892C204.627 296.794 201.781 299.753 197.987 299.753Z" fill="black"/>
<path d="M267.83 284.786V299.838H250.636V284.786H247.515V299.838H230.166L230.2 299.77C231.045 297.685 231.511 295.381 231.511 292.909C231.511 288.89 229.234 285.577 225.854 284.147C224.681 283.643 223.388 283.374 222.008 283.374C216.628 283.374 212.506 287.494 212.506 292.909C212.506 295.65 213.575 298.072 215.317 299.77C216.196 300.628 217.266 301.317 218.456 301.772L218.801 301.906L219.214 302.041C219.49 302.125 219.784 302.192 220.077 302.259C220.232 302.276 220.37 302.31 220.542 302.327L220.732 302.36C221.111 302.411 221.491 302.427 221.888 302.427H225.285C222.664 305.522 218.697 307.405 214.092 307.405V310.247C220.491 310.247 225.837 307.22 228.855 302.427H270.986V284.786H267.865H267.83ZM228.631 293.262C228.579 295.65 228.01 297.853 227.027 299.77H221.991C218.197 299.77 215.351 296.844 215.351 292.909C215.351 288.974 218.197 286.048 221.991 286.048C225.785 286.048 228.631 289.007 228.631 292.909V293.279" fill="black"/>
<path d="M32.4666 276.374H36.1048V297.404C36.1048 299.829 35.3985 301.762 33.9859 303.201C32.4933 304.693 30.4809 305.44 27.9488 305.44C25.3901 305.44 23.391 304.667 21.9517 303.121C20.699 301.788 20.0726 300.042 20.0726 297.883V295.804H23.7908V297.204C23.7908 300.642 25.2168 302.361 28.0688 302.361C29.6413 302.361 30.8141 301.775 31.587 300.602C32.1734 299.696 32.4666 298.19 32.4666 296.084V276.374ZM49.8266 284.01C52.9184 284.01 55.2773 285.09 56.9032 287.249C58.3425 289.114 59.0621 291.646 59.0621 294.845C59.0621 298.417 58.1292 301.135 56.2635 303.001C54.6643 304.627 52.5053 305.44 49.7866 305.44C46.6415 305.44 44.2427 304.387 42.5901 302.281C41.1508 300.442 40.4312 297.963 40.4312 294.845C40.4312 291.22 41.3774 288.435 43.2698 286.489C44.8957 284.836 47.0813 284.01 49.8266 284.01ZM49.8266 287.009C47.9609 287.009 46.4949 287.715 45.4288 289.128C44.3626 290.514 43.8295 292.419 43.8295 294.845C43.8295 297.377 44.4292 299.309 45.6287 300.642C46.6682 301.815 48.0541 302.401 49.7866 302.401C51.6257 302.401 53.0517 301.735 54.0646 300.402C55.1041 299.07 55.6238 297.217 55.6238 294.845C55.6238 292.233 55.0374 290.234 53.8647 288.848C52.8518 287.622 51.5058 287.009 49.8266 287.009ZM62.9762 276.374H66.2146V287.209C67.7338 285.076 69.8661 284.01 72.6115 284.01C75.5167 284.01 77.7556 285.076 79.3282 287.209C80.7142 289.074 81.4072 291.54 81.4072 294.605C81.4072 298.15 80.4876 300.909 78.6485 302.881C77.0493 304.587 74.9837 305.44 72.4516 305.44C69.5996 305.44 67.4273 304.36 65.9347 302.201V305H62.9762V276.374ZM72.0118 287.049C70.2526 287.049 68.84 287.768 67.7738 289.208C66.7343 290.62 66.2146 292.499 66.2146 294.845C66.2146 297.297 66.8143 299.216 68.0137 300.602C69.0532 301.775 70.3859 302.361 72.0118 302.361C73.8242 302.361 75.2635 301.682 76.3297 300.322C77.4225 298.963 77.9689 297.137 77.9689 294.845C77.9689 292.339 77.3558 290.367 76.1298 288.928C75.0636 287.675 73.6909 287.049 72.0118 287.049ZM97.1792 291.966V305H93.541V276.374H112.732V279.612H97.1792V288.728H110.853V291.966H97.1792ZM134.985 302.241V304.88C134.079 305.2 133.373 305.36 132.866 305.36C130.734 305.36 129.575 304.387 129.388 302.441C127.922 304.44 125.59 305.44 122.391 305.44C120.179 305.44 118.46 304.827 117.234 303.601C116.168 302.535 115.635 301.162 115.635 299.483C115.635 297.564 116.314 296.084 117.674 295.045C118.447 294.458 120.059 293.885 122.511 293.326L129.228 291.806L129.268 290.087C129.268 288.035 127.722 287.009 124.63 287.009C121.672 287.009 120.086 288.208 119.873 290.607H116.554C116.634 288.795 117.087 287.409 117.914 286.449C119.326 284.823 121.618 284.01 124.79 284.01C129.934 284.01 132.506 285.876 132.506 289.607V301.082C132.506 302.095 132.946 302.601 133.826 302.601C133.932 302.601 134.212 302.521 134.665 302.361C134.825 302.308 134.932 302.268 134.985 302.241ZM129.268 294.485L123.991 295.844C122.098 296.324 120.792 296.817 120.072 297.324C119.379 297.83 119.033 298.536 119.033 299.443C119.033 301.548 120.392 302.601 123.111 302.601C125.03 302.601 126.656 301.975 127.989 300.722C128.842 299.949 129.268 299.07 129.268 298.083V294.485ZM141.658 284.45V305H138.419V284.45H141.658ZM140.099 276.414C140.658 276.414 141.125 276.614 141.498 277.014C141.898 277.387 142.098 277.84 142.098 278.373C142.098 278.933 141.898 279.412 141.498 279.812C141.125 280.185 140.658 280.372 140.099 280.372C139.566 280.372 139.099 280.185 138.699 279.812C138.326 279.412 138.14 278.933 138.14 278.373C138.14 277.84 138.326 277.387 138.699 277.014C139.099 276.614 139.566 276.414 140.099 276.414ZM147.246 284.45H150.285V288.208C151.484 285.383 153.376 283.97 155.962 283.97C156.282 283.97 156.668 284.01 157.121 284.09V287.449C154.989 287.475 153.523 287.782 152.723 288.368C151.257 289.434 150.525 291.42 150.525 294.325V305H147.246V284.45Z" fill="black"/>
<g clip-path="url(#clip0_1032_15043)">
<path d="M47.4192 128.739C47.1352 128.761 46.8512 128.782 46.5672 128.804V128.761C33.5261 129.416 19.0432 134.702 15.002 126.489C16.8369 132.059 21.3805 146.061 25.2252 158.535C28.9824 170.789 31.7567 183.022 35.4047 185.665C46.6109 193.813 69.1107 186.277 82.414 195.932C95.0183 205.085 92.1567 236.279 103.734 237.655C115.683 239.075 114.482 221.49 118.392 207.707C121.734 195.932 126.518 181.537 138.052 164.454C133.967 158.971 127.676 152.2 118.217 145.319C111.205 140.229 102.882 136.581 94.3192 134.025C74.6811 128.389 59.6084 128.258 47.4192 128.717" fill="#ABE1FA"/>
<mask id="mask0_1032_15043" style="mask-type:luminance" maskUnits="userSpaceOnUse" x="15" y="126" width="124" height="112">
<path d="M25.2252 158.579C28.9824 170.833 31.7567 183.066 35.3829 185.709C46.5891 193.836 69.0889 186.321 82.3922 195.976C94.9964 205.129 92.1348 236.323 103.712 237.699C115.683 239.119 114.46 221.534 118.37 207.75C121.712 195.976 126.496 181.559 138.03 164.52C133.945 159.037 127.654 152.266 118.195 145.384C111.205 140.295 102.86 136.647 94.2974 134.091C74.6811 128.455 59.5865 128.324 47.4192 128.783C47.1352 128.805 46.8512 128.826 46.5672 128.848V128.805C33.5261 129.46 19.0432 134.746 15.002 126.533C16.815 132.103 21.3805 146.105 25.2252 158.579Z" fill="white"/>
</mask>
<g mask="url(#mask0_1032_15043)">
<path d="M47.0703 161.374V173.826L50.0848 176.84H51.5047V158.36H50.0848L47.0703 161.374Z" fill="#006594"/>
<path d="M60.6373 235.864H52.0742V254.322H60.6373V235.864Z" fill="#006594"/>
<path d="M47.0703 180.75V193.201L50.0848 196.216H51.5047V177.735H50.0848L47.0703 180.75Z" fill="#006594"/>
<path d="M41.8516 216.488V234.968H43.1622L46.1768 231.954V219.503L43.1622 216.488H41.8516Z" fill="#006594"/>
<path d="M47.0703 122.622V135.073L50.0848 138.088H51.5047V119.607H50.0848L47.0703 122.622Z" fill="#006594"/>
<path d="M52.0742 196.216H60.6373V177.735H52.0742V196.216Z" fill="#006594"/>
<path d="M60.6373 216.488H52.0742V234.968H60.6373V216.488Z" fill="#006594"/>
<path d="M52.0742 176.84H60.6373V158.36H52.0742V176.84Z" fill="#006594"/>
<path d="M60.6373 197.112H52.0742V215.592H60.6373V197.112Z" fill="#006594"/>
<path d="M41.8516 197.112V215.57H43.1622L46.1768 212.578V200.126L43.1622 197.112H41.8516Z" fill="#006594"/>
<path d="M47.0703 200.126V212.578L50.0848 215.592H51.5047V197.112H50.0848L47.0703 200.126Z" fill="#006594"/>
<path d="M41.8516 158.36V176.84H43.1622L46.1768 173.826V161.375L43.1622 158.36H41.8516Z" fill="#006594"/>
<path d="M52.0742 157.464H60.6373V138.984H52.0742V157.464Z" fill="#006594"/>
<path d="M41.8516 138.984V157.464H43.1622L46.1768 154.45V141.998L43.1622 138.984H41.8516Z" fill="#006594"/>
<path d="M41.8516 177.735V196.215H43.1622L46.1768 193.201V180.75L43.1622 177.735H41.8516Z" fill="#006594"/>
<path d="M41.8516 119.607V138.088H43.1622L46.1768 135.073V122.622L43.1622 119.607H41.8516Z" fill="#006594"/>
<path d="M47.0703 219.502V231.932L50.0848 234.946H51.5047V216.488H50.0848L47.0703 219.502Z" fill="#006594"/>
<path d="M47.0703 238.878V251.308L50.0848 254.322H51.5047V235.864H50.0848L47.0703 238.878Z" fill="#006594"/>
<path d="M47.0703 141.998V154.45L50.0848 157.464H51.5047V138.984H50.0848L47.0703 141.998Z" fill="#006594"/>
<path d="M66.4238 141.998V154.45L69.4384 157.464H70.8583V138.984H69.4384L66.4238 141.998Z" fill="#006594"/>
<path d="M66.4238 122.622V135.073L69.4384 138.088H70.8583V119.607H69.4384L66.4238 122.622Z" fill="#006594"/>
<path d="M66.4238 180.749V193.201L69.4384 196.215H70.8583V177.735H69.4384L66.4238 180.749Z" fill="#006594"/>
<path d="M66.4238 200.126V212.578L69.4384 215.592H70.8583V197.112H69.4384L66.4238 200.126Z" fill="#006594"/>
<path d="M79.9927 216.488H71.4297V234.968H79.9927V216.488Z" fill="#006594"/>
<path d="M79.9927 235.864H71.4297V254.322H79.9927V235.864Z" fill="#006594"/>
<path d="M71.4297 215.592H79.9927V197.112H71.4297V215.592Z" fill="#006594"/>
<path d="M66.4238 219.502V231.932L69.4384 234.946H70.8583V216.488H69.4384L66.4238 219.502Z" fill="#006594"/>
<path d="M61.2051 119.607V138.088H62.5157L65.5303 135.073V122.622L62.5157 119.607H61.2051Z" fill="#006594"/>
<path d="M61.2051 197.112V215.57H62.5157L65.5303 212.578V200.126L62.5157 197.112H61.2051Z" fill="#006594"/>
<path d="M61.2051 216.488V234.968H62.5157L65.5303 231.954V219.502L62.5157 216.488H61.2051Z" fill="#006594"/>
<path d="M61.2051 235.864V254.322H62.5157L65.5303 251.33V238.878L62.5157 235.864H61.2051Z" fill="#006594"/>
<path d="M61.2051 177.735V196.216H62.5157L65.5303 193.201V180.75L62.5157 177.735H61.2051Z" fill="#006594"/>
<path d="M66.4238 238.878V251.308L69.4384 254.322H70.8583V235.864H69.4384L66.4238 238.878Z" fill="#006594"/>
<path d="M61.2051 158.36V176.84H62.5157L65.5303 173.826V161.374L62.5157 158.36H61.2051Z" fill="#006594"/>
<path d="M52.0742 138.088H60.6373V119.607H52.0742V138.088Z" fill="#006594"/>
<path d="M61.2051 138.984V157.464H62.5157L65.5303 154.45V141.998L62.5157 138.984H61.2051Z" fill="#006594"/>
<path d="M71.4297 196.215H79.9927V177.735H71.4297V196.215Z" fill="#006594"/>
<path d="M21.9283 158.36H13.3652V176.819H21.9283V158.36Z" fill="#006594"/>
<path d="M21.9283 177.735H13.3652V196.216H21.9283V177.735Z" fill="#006594"/>
<path d="M41.8516 235.864V254.322H43.1622L46.1768 251.33V238.878L43.1622 235.864H41.8516Z" fill="#006594"/>
<path d="M21.9283 197.112H13.3652V215.592H21.9283V197.112Z" fill="#006594"/>
<path d="M13.3652 138.088H21.9283V119.607H13.3652V138.088Z" fill="#006594"/>
<path d="M22.4961 216.488V234.968H23.8068L26.8213 231.954V219.502L23.8068 216.488H22.4961Z" fill="#006594"/>
<path d="M22.4961 197.112V215.571H23.8068L26.8213 212.578V200.127L23.8068 197.112H22.4961Z" fill="#006594"/>
<path d="M22.4961 235.864V254.323H23.8068L26.8213 251.33V238.878L23.8068 235.864H22.4961Z" fill="#006594"/>
<path d="M21.9283 216.488H13.3652V234.968H21.9283V216.488Z" fill="#006594"/>
<path d="M21.9283 235.864H13.3652V254.323H21.9283V235.864Z" fill="#006594"/>
<path d="M22.4961 177.735V196.216H23.8068L26.8213 193.201V180.75L23.8068 177.735H22.4961Z" fill="#006594"/>
<path d="M13.3652 157.464H21.9283V138.984H13.3652V157.464Z" fill="#006594"/>
<path d="M32.7207 196.215H41.2837V177.735H32.7207V196.215Z" fill="#006594"/>
<path d="M41.2837 197.112H32.7207V215.592H41.2837V197.112Z" fill="#006594"/>
<path d="M41.2837 216.488H32.7207V234.968H41.2837V216.488Z" fill="#006594"/>
<path d="M41.2837 235.864H32.7207V254.322H41.2837V235.864Z" fill="#006594"/>
<path d="M32.7207 138.088H41.2837V119.607H32.7207V138.088Z" fill="#006594"/>
<path d="M27.7168 122.622V135.073L30.7095 138.088H32.1512V119.607H30.7095L27.7168 122.622Z" fill="#006594"/>
<path d="M22.4961 158.36V176.84H23.8068L26.8213 173.826V161.374L23.8068 158.36H22.4961Z" fill="#006594"/>
<path d="M32.7207 176.84H41.2837V158.36H32.7207V176.84Z" fill="#006594"/>
<path d="M32.7207 157.464H41.2837V138.984H32.7207V157.464Z" fill="#006594"/>
<path d="M22.4961 119.608V138.088H23.8068L26.8213 135.074V122.622L23.8068 119.608H22.4961Z" fill="#006594"/>
<path d="M27.7168 219.502V231.932L30.7095 234.946H32.1512V216.488H30.7095L27.7168 219.502Z" fill="#006594"/>
<path d="M27.7168 238.878V251.308L30.7095 254.322H32.1512V235.864H30.7095L27.7168 238.878Z" fill="#006594"/>
<path d="M27.7168 141.998V154.45L30.7095 157.464H32.1512V138.984H30.7095L27.7168 141.998Z" fill="#006594"/>
<path d="M22.4961 138.984V157.464H23.8068L26.8213 154.45V141.998L23.8068 138.984H22.4961Z" fill="#006594"/>
<path d="M27.7168 161.374V173.826L30.7095 176.84H32.1512V158.36H30.7095L27.7168 161.374Z" fill="#006594"/>
<path d="M27.7168 200.126V212.578L30.7095 215.592H32.1512V197.112H30.7095L27.7168 200.126Z" fill="#006594"/>
<path d="M27.7168 180.749V193.201L30.7095 196.215H32.1512V177.735H30.7095L27.7168 180.749Z" fill="#006594"/>
<path d="M66.4238 161.374V173.826L69.4384 176.84H70.8583V158.36H69.4384L66.4238 161.374Z" fill="#006594"/>
<path d="M119.289 177.735V196.216H120.6L123.614 193.201V180.75L120.6 177.735H119.289Z" fill="#006594"/>
<path d="M119.289 158.36V176.84H120.6L123.614 173.826V161.374L120.6 158.36H119.289Z" fill="#006594"/>
<path d="M119.289 216.488V234.968H120.6L123.614 231.954V219.502L120.6 216.488H119.289Z" fill="#006594"/>
<path d="M119.289 138.984V157.464H120.6L123.614 154.45V141.998L120.6 138.984H119.289Z" fill="#006594"/>
<path d="M124.51 180.75V193.201L127.524 196.216H128.944V177.735H127.524L124.51 180.75Z" fill="#006594"/>
<path d="M124.51 200.126V212.578L127.524 215.592H128.944V197.112H127.524L124.51 200.126Z" fill="#006594"/>
<path d="M119.289 119.608V138.088H120.6L123.614 135.074V122.622L120.6 119.608H119.289Z" fill="#006594"/>
<path d="M124.51 219.502V231.932L127.524 234.946H128.944V216.488H127.524L124.51 219.502Z" fill="#006594"/>
<path d="M124.51 238.878V251.308L127.524 254.322H128.944V235.864H127.524L124.51 238.878Z" fill="#006594"/>
<path d="M119.289 197.112V215.571H120.6L123.614 212.578V200.127L120.6 197.112H119.289Z" fill="#006594"/>
<path d="M110.158 196.216H118.721V177.735H110.158V196.216Z" fill="#006594"/>
<path d="M119.289 235.864V254.323H120.6L123.614 251.33V238.878L120.6 235.864H119.289Z" fill="#006594"/>
<path d="M110.158 234.946H118.721V216.488H110.158V234.946Z" fill="#006594"/>
<path d="M110.158 254.322H118.721V235.864H110.158V254.322Z" fill="#006594"/>
<path d="M110.158 215.592H118.721V197.112H110.158V215.592Z" fill="#006594"/>
<path d="M110.158 176.84H118.721V158.36H110.158V176.84Z" fill="#006594"/>
<path d="M105.133 122.622V135.073L108.147 138.088H109.589V119.607H108.147L105.133 122.622Z" fill="#006594"/>
<path d="M110.158 157.464H118.721V138.984H110.158V157.464Z" fill="#006594"/>
<path d="M118.721 119.607H110.158V138.066H118.721V119.607Z" fill="#006594"/>
<path d="M138.075 119.607H129.512V138.066H138.075V119.607Z" fill="#006594"/>
<path d="M138.075 216.488H129.512V234.968H138.075V216.488Z" fill="#006594"/>
<path d="M124.51 161.374V173.826L127.524 176.84H128.944V158.36H127.524L124.51 161.374Z" fill="#006594"/>
<path d="M129.512 157.464H138.075V138.984H129.512V157.464Z" fill="#006594"/>
<path d="M124.51 122.622V135.073L127.524 138.088H128.944V119.607H127.524L124.51 122.622Z" fill="#006594"/>
<path d="M124.51 141.998V154.45L127.524 157.464H128.944V138.984H127.524L124.51 141.998Z" fill="#006594"/>
<path d="M138.075 235.864H129.512V254.322H138.075V235.864Z" fill="#006594"/>
<path d="M138.075 197.112H129.512V215.592H138.075V197.112Z" fill="#006594"/>
<path d="M129.512 176.84H138.075V158.36H129.512V176.84Z" fill="#006594"/>
<path d="M129.512 196.215H138.075V177.735H129.512V196.215Z" fill="#006594"/>
<path d="M105.133 219.503V231.932L108.147 234.947H109.589V216.488H108.147L105.133 219.503Z" fill="#006594"/>
<path d="M85.7793 219.502V231.932L88.7938 234.947H90.2137V216.488H88.7938L85.7793 219.502Z" fill="#006594"/>
<path d="M85.7793 180.75V193.201L88.7938 196.216H90.2137V177.735H88.7938L85.7793 180.75Z" fill="#006594"/>
<path d="M90.7832 234.946H99.3462V216.488H90.7832V234.946Z" fill="#006594"/>
<path d="M85.7793 238.878V251.308L88.7938 254.323H90.2137V235.864H88.7938L85.7793 238.878Z" fill="#006594"/>
<path d="M85.7793 141.998V154.45L88.7938 157.464H90.2137V138.984H88.7938L85.7793 141.998Z" fill="#006594"/>
<path d="M85.7793 122.622V135.074L88.7938 138.088H90.2137V119.608H88.7938L85.7793 122.622Z" fill="#006594"/>
<path d="M90.7832 254.322H99.3462V235.864H90.7832V254.322Z" fill="#006594"/>
<path d="M85.7793 161.374V173.826L88.7938 176.84H90.2137V158.36H88.7938L85.7793 161.374Z" fill="#006594"/>
<path d="M80.5586 119.607V138.088H81.8693L84.8838 135.073V122.622L81.8693 119.607H80.5586Z" fill="#006594"/>
<path d="M85.7793 200.127V212.578L88.7938 215.592H90.2137V197.112H88.7938L85.7793 200.127Z" fill="#006594"/>
<path d="M80.5586 235.864V254.322H81.8693L84.8838 251.33V238.878L81.8693 235.864H80.5586Z" fill="#006594"/>
<path d="M71.4297 138.088H79.9927V119.607H71.4297V138.088Z" fill="#006594"/>
<path d="M80.5586 138.984V157.464H81.8693L84.8838 154.45V141.998L81.8693 138.984H80.5586Z" fill="#006594"/>
<path d="M80.5586 216.488V234.968H81.8693L84.8838 231.954V219.502L81.8693 216.488H80.5586Z" fill="#006594"/>
<path d="M71.4297 157.464H79.9927V138.984H71.4297V157.464Z" fill="#006594"/>
<path d="M80.5586 158.36V176.84H81.8693L84.8838 173.826V161.374L81.8693 158.36H80.5586Z" fill="#006594"/>
<path d="M80.5586 197.112V215.57H81.8693L84.8838 212.578V200.126L81.8693 197.112H80.5586Z" fill="#006594"/>
<path d="M80.5586 177.735V196.216H81.8693L84.8838 193.201V180.75L81.8693 177.735H80.5586Z" fill="#006594"/>
<path d="M90.7832 176.84H99.3462V158.36H90.7832V176.84Z" fill="#006594"/>
<path d="M105.133 238.878V251.308L108.147 254.322H109.589V235.864H108.147L105.133 238.878Z" fill="#006594"/>
<path d="M90.7832 215.592H99.3462V197.112H90.7832V215.592Z" fill="#006594"/>
<path d="M99.9121 138.984V157.464H101.245L104.259 154.45V141.998L101.245 138.984H99.9121Z" fill="#006594"/>
<path d="M71.4297 176.84H79.9927V158.36H71.4297V176.84Z" fill="#006594"/>
<path d="M105.133 180.75V193.201L108.147 196.215H109.589V177.735H108.147L105.133 180.75Z" fill="#006594"/>
<path d="M105.133 161.375V173.826L108.147 176.84H109.589V158.36H108.147L105.133 161.375Z" fill="#006594"/>
<path d="M99.9121 158.36V176.84H101.245L104.259 173.826V161.374L101.245 158.36H99.9121Z" fill="#006594"/>
<path d="M105.133 200.126V212.578L108.147 215.592H109.589V197.112H108.147L105.133 200.126Z" fill="#006594"/>
<path d="M99.9121 119.607V138.088H101.245L104.259 135.073V122.622L101.245 119.607H99.9121Z" fill="#006594"/>
<path d="M105.133 141.998V154.45L108.147 157.464H109.589V138.984H108.147L105.133 141.998Z" fill="#006594"/>
<path d="M90.7832 157.464H99.3462V138.984H90.7832V157.464Z" fill="#006594"/>
<path d="M90.7832 138.088H99.3462V119.607H90.7832V138.088Z" fill="#006594"/>
<path d="M90.7832 196.216H99.3462V177.735H90.7832V196.216Z" fill="#006594"/>
<path d="M99.9121 177.735V196.216H101.245L104.259 193.201V180.75L101.245 177.735H99.9121Z" fill="#006594"/>
<path d="M99.9121 197.112V215.57H101.245L104.259 212.578V200.126L101.245 197.112H99.9121Z" fill="#006594"/>
<path d="M99.9121 235.864V254.322H101.245L104.259 251.33V238.878L101.245 235.864H99.9121Z" fill="#006594"/>
<path d="M99.9121 216.488V234.968H101.245L104.259 231.954V219.502L101.245 216.488H99.9121Z" fill="#006594"/>
</g>
<path d="M118.433 207.531C118.367 207.815 118.302 208.099 118.236 208.361H118.192C114.785 220.966 115.353 236.366 106.287 237.677C112.141 237.677 126.865 237.655 139.928 237.873C152.728 238.07 165.224 239.228 168.872 236.584C180.078 228.437 179.859 204.713 193.163 195.058C199.257 190.624 209.153 191.235 218.284 191.847C228.026 192.502 236.917 193.136 239.429 187.675C244.475 176.731 227.371 172.449 215.466 164.476C205.308 157.66 193.075 148.66 180.405 132.408C173.918 134.593 165.551 138.481 156.071 145.362C149.059 150.452 143.03 157.245 137.94 164.585C126.515 181.515 121.731 195.823 118.389 207.531" fill="#FFE6CA"/>
<mask id="mask1_1032_15043" style="mask-type:luminance" maskUnits="userSpaceOnUse" x="106" y="132" width="135" height="107">
<path d="M156.114 145.34C149.102 150.43 143.073 157.245 137.983 164.563C126.559 181.493 121.775 195.801 118.433 207.51C118.367 207.793 118.302 208.077 118.236 208.34H118.192C114.785 220.944 115.331 236.344 106.287 237.655C112.141 237.655 126.865 237.633 139.928 237.851C152.728 238.048 165.224 239.206 168.872 236.563C180.078 228.437 179.859 204.692 193.163 195.036C199.257 190.602 209.153 191.214 218.284 191.825C228.026 192.481 236.917 193.114 239.429 187.653C244.475 176.709 227.371 172.427 215.466 164.454C205.308 157.639 193.075 148.639 180.405 132.408C173.918 134.593 165.551 138.481 156.071 145.362" fill="white"/>
</mask>
<g mask="url(#mask1_1032_15043)">
<path d="M149.429 222.67C149.844 220.704 153.536 203.468 153.514 201.109C153.493 198.248 149.954 193.595 149.495 193.18C149.145 192.852 148.599 192.874 148.294 193.245C147.988 193.595 148.01 194.141 148.359 194.468C148.927 195.015 151.701 199.056 151.811 201.044V201.131C151.832 202.769 149.408 214.653 147.791 222.276C147.573 223.041 144.973 231.91 144.23 238.638C144.82 238.638 145.388 238.638 145.956 238.638C146.743 231.932 149.408 222.866 149.451 222.735V222.67" fill="#3678A8"/>
<path d="M153.82 218.41C155.109 212.774 156.9 205.085 156.681 201.874C156.419 197.767 155.895 193.245 153.077 191.738C150.74 190.514 145.803 190.667 143.16 190.733C142.854 190.733 142.592 190.733 142.395 190.733C140.32 190.777 133.439 193.442 130.992 195.67C130.577 196.041 130.031 196.5 129.419 197.046C126.361 199.667 121.73 203.621 120.07 207.16C119.262 208.864 118.213 210.393 117.187 211.66C116.946 212.796 116.75 213.91 116.531 215.002C118.06 213.407 120.179 210.939 121.599 207.881C123.085 204.692 127.737 200.738 130.49 198.357C131.123 197.811 131.691 197.33 132.106 196.959C134.313 194.949 140.866 192.48 142.417 192.459C142.635 192.459 142.898 192.459 143.203 192.437C145.344 192.371 150.346 192.218 152.291 193.245C154.497 194.403 154.825 199.493 154.978 201.939V202.027C155.13 205.019 153.339 212.796 152.16 217.973C151.832 219.415 151.548 220.66 151.33 221.621C150.587 225.094 149.604 232.74 149.014 238.572C149.604 238.572 150.172 238.572 150.74 238.572C151.308 232.827 152.291 225.378 153.012 221.971C153.208 221.031 153.492 219.786 153.82 218.344" fill="#000034"/>
<path d="M125.862 197.941C130.711 194.992 136.369 191.344 136.435 191.323C136.828 191.06 136.959 190.536 136.697 190.121C136.435 189.706 135.91 189.597 135.517 189.859C135.474 189.903 129.816 193.529 124.988 196.456C123.175 197.548 121.253 199.733 119.44 202.136C119.003 203.752 118.61 205.325 118.238 206.876C120.532 203.381 123.394 199.449 125.862 197.941Z" fill="#E0861B"/>
<path d="M135.143 189.335C139.839 188.527 147.987 188.418 148.074 188.396C148.14 188.396 155.589 188.505 156.55 192.59C157.73 197.549 158.451 206.134 157.926 208.733C157.337 211.551 153.121 226.231 153.077 226.362C152.946 226.82 153.208 227.301 153.667 227.432C154.125 227.563 154.606 227.301 154.737 226.842C154.912 226.231 158.997 211.966 159.608 209.083C160.242 206.046 159.368 196.981 158.232 192.175C156.943 186.758 148.446 186.648 148.074 186.648C147.725 186.648 139.708 186.78 134.88 187.61C131.167 188.243 125.094 191.804 122.145 193.639C121.796 194.578 121.468 195.517 121.162 196.435L121.446 196.129C122.407 195.495 130.817 190.078 135.164 189.335" fill="#006594"/>
<path d="M162.755 206.832C162.733 206.002 162.711 205.085 162.711 204.145C162.602 197.985 162.493 190.339 159.609 187.325C156.398 183.983 151.636 182.344 146.197 182.716C140.954 183.087 133.046 184.878 130.774 185.534C129.638 185.861 126.82 187.238 124.046 188.723C123.697 189.575 123.347 190.405 123.02 191.257C126.143 189.509 129.944 187.565 131.233 187.194C133.461 186.56 141.194 184.813 146.306 184.441C151.308 184.092 155.48 185.512 158.364 188.526C160.767 191.039 160.898 198.619 160.985 204.167C160.985 205.128 161.007 206.046 161.029 206.876C161.16 211.376 159.238 218.672 155.306 228.589C153.995 231.888 153.034 235.208 152.422 238.638C153.012 238.638 153.602 238.638 154.17 238.638C154.781 235.448 155.677 232.325 156.9 229.245C160.92 219.109 162.886 211.572 162.755 206.832Z" fill="#4A8ECC"/>
<path d="M163.934 221.009C164.546 217.012 165.179 212.883 165.922 210.437C167.538 205.172 165.594 192.939 164.939 189.313C163.934 183.59 159.762 181.449 156.725 180.335C153.645 179.199 144.012 180.248 140.56 180.619C137.786 180.925 130.927 182.672 126.056 184.289C125.706 185.01 125.378 185.731 125.051 186.451C129.878 184.835 137.917 182.672 140.757 182.367C145.737 181.82 153.82 181.121 156.157 181.973C159.019 183.022 162.427 184.835 163.257 189.619C164.546 196.871 165.485 206.024 164.283 209.912C163.497 212.49 162.842 216.684 162.23 220.747C161.728 224.09 161.247 227.257 160.745 229.026C160.22 230.883 159.194 234.771 158.189 238.66H159.958C160.941 234.946 161.881 231.276 162.383 229.507C162.907 227.65 163.41 224.417 163.934 221.009Z" fill="#8B0304"/>
<path d="M160.199 226.994C160.33 226.535 160.068 226.055 159.609 225.924C159.151 225.793 158.67 226.055 158.561 226.535C158.561 226.557 157.927 228.807 157.185 230.686C156.791 231.691 155.83 235.492 155.109 238.637C155.721 238.637 156.311 238.637 156.879 238.637C157.534 235.732 158.386 232.324 158.779 231.319C159.544 229.353 160.177 227.082 160.199 226.994Z" fill="#CA6C18"/>
<path d="M168.806 215.264V215.155C168.893 214.434 170.269 197.505 169.308 193.464C168.369 189.466 166.512 181.624 163.301 179.418C160.374 177.386 152.728 174.568 149.386 174.415C147.289 174.328 142.614 175.223 139.185 175.748C137.59 175.988 136.214 176.206 135.755 176.228C135.1 176.272 132.61 176.556 129.813 176.884C129.464 177.495 129.136 178.129 128.809 178.762C132.085 178.347 135.165 177.998 135.843 177.954C136.389 177.932 137.656 177.735 139.425 177.473C142.571 176.993 147.355 176.075 149.277 176.163C152.051 176.294 159.435 178.893 162.296 180.881C164.961 182.716 166.774 190.405 167.604 193.9C168.325 196.915 167.583 208.973 167.08 214.98C166.884 215.92 164.175 228.393 163.629 230.861C163.345 232.172 162.515 235.405 161.597 238.682H163.367C164.262 235.449 165.049 232.369 165.289 231.233C165.857 228.655 168.74 215.286 168.74 215.286" fill="#007243"/>
<path d="M136.631 180.378C138.553 179.941 143.228 179.439 145.762 179.177L146.745 179.067C148.602 178.871 152.14 179.133 152.162 179.133C152.643 179.177 153.036 178.805 153.08 178.325C153.123 177.844 152.774 177.429 152.293 177.385C152.14 177.385 148.58 177.101 146.548 177.32L145.587 177.429C143.031 177.691 138.269 178.194 136.26 178.652C135.014 178.936 131.345 179.526 128.112 180.05C127.784 180.684 127.478 181.317 127.15 181.973C127.544 181.907 127.937 181.842 128.352 181.776C131.781 181.23 135.32 180.662 136.631 180.356" fill="#006594"/>
<path d="M157.686 174.918C158.145 175.027 158.604 174.721 158.713 174.24C158.8 173.782 158.516 173.301 158.057 173.214C156.965 172.973 147.223 171.532 145.104 171.816C143.706 172.012 139.38 172.471 132.281 172.602C131.931 173.192 131.582 173.782 131.232 174.35C136.912 174.262 143.4 173.782 145.322 173.52C146.698 173.323 153.689 174.022 157.686 174.896" fill="#006594"/>
<path d="M144.472 170.723C148.251 170.658 156.334 171.75 158.868 172.864C161.38 173.978 164.329 178.106 166.361 181.099C168.479 184.267 170.336 190.995 170.555 192.371C170.729 193.354 170.664 200.235 170.555 204.626C170.555 205.106 170.926 205.499 171.385 205.521C171.865 205.521 172.259 205.15 172.259 204.669C172.259 203.533 172.455 193.572 172.215 192.087C171.931 190.449 170.009 183.502 167.737 180.138C165.421 176.687 162.407 172.558 159.523 171.291C156.749 170.068 148.404 168.932 144.407 168.997C143.074 169.019 140.584 169.041 137.941 169.041C136.783 169.041 135.603 169.041 134.446 169.041C134.074 169.631 133.703 170.199 133.354 170.789C134.883 170.789 136.477 170.789 137.941 170.767C140.606 170.767 143.096 170.745 144.451 170.723" fill="#ED1D24"/>
<path d="M178.506 223.193C178.659 222.538 182.46 207.269 182.613 199.689C182.766 192.546 178.44 182.934 174.181 177.779C169.943 172.645 164.089 166.289 160.375 165.175C156.967 164.17 145.63 161.352 139.885 161.308C139.557 161.723 139.251 162.16 138.924 162.575L138.574 163.056C138.836 163.056 139.098 163.056 139.317 163.056C144.647 162.903 156.421 165.83 159.873 166.857C162.407 167.621 167.147 172.012 172.848 178.893C176.824 183.699 181.018 193.004 180.887 199.645C180.734 207.029 176.999 222.123 176.846 222.757L176.802 222.953C176.321 224.854 175.491 228.218 174.771 231.931C175.863 230.206 176.846 228.261 177.741 226.274C178.003 225.116 178.266 224.133 178.44 223.39L178.484 223.193" fill="#ED1D24"/>
<path d="M184.535 191.475C182.744 185.359 178.113 178.128 177.567 177.32C176.06 175.005 169.987 167.446 165.159 164.061C160.769 160.981 151.288 158.905 144.997 157.551L143.73 157.267C143.533 157.223 143.337 157.201 143.14 157.158C142.725 157.682 142.288 158.184 141.873 158.709C142.354 158.774 142.856 158.862 143.358 158.971L144.625 159.255C150.392 160.522 160.069 162.619 164.176 165.502C168.589 168.604 174.552 175.878 176.125 178.281C177.982 181.121 181.477 187.216 182.875 191.978C184.361 197.024 183.924 204.91 183.683 209.148C183.683 209.432 183.64 209.781 183.596 210.152C184.164 208.667 184.797 207.116 185.562 205.587C185.715 201.196 185.693 195.56 184.513 191.475" fill="#000034"/>
<path d="M175.776 157.507C170.687 153.881 164.308 149.512 160.026 147.961C158.519 147.415 156.225 146.672 153.844 145.93C153.342 146.388 152.861 146.825 152.381 147.284C155.068 148.114 157.776 148.988 159.458 149.6C163.543 151.085 169.813 155.367 174.815 158.927C179.206 162.051 186.567 172.121 188.184 175.966C189.779 179.723 192.007 194.097 191.745 196.259C191.745 196.434 191.723 196.653 191.723 196.849C192.269 196.303 192.859 195.801 193.47 195.32C193.296 191.06 191.33 178.959 189.779 175.267C188.053 171.16 180.495 160.828 175.82 157.485" fill="#CE8A14"/>
<path d="M181.497 161.854C181.825 162.204 182.371 162.204 182.72 161.854C183.048 161.527 183.07 160.959 182.72 160.631C182.568 160.456 178.81 156.612 174.529 153.619C170.75 150.976 161.073 145.274 156.66 143.505L156.114 143.942C155.786 144.226 155.459 144.51 155.131 144.794C158.429 145.777 169.177 151.981 173.546 155.039C177.696 157.922 181.432 161.789 181.475 161.832" fill="#ED1D24"/>
<path d="M184.117 158.185C180.338 152.833 170.88 145.908 165.768 143.156C164.326 142.391 162.404 141.517 160.372 140.666C159.826 141.059 159.28 141.452 158.756 141.867C161.115 142.85 163.365 143.833 164.982 144.685C170.049 147.415 179.246 154.231 182.741 159.19C186.214 164.105 191.807 178.435 192.899 182.52C193.336 184.158 194.428 188.767 195.302 194.032C195.804 193.726 196.35 193.42 196.896 193.158C196.023 188.046 194.996 183.655 194.559 182.061C193.401 177.757 187.787 163.318 184.139 158.163" fill="#276A9B"/>
<path d="M193.098 171.116C191.984 168.604 190.914 166.245 190.368 164.716L190.128 164.06C188.751 160.15 186.436 153.575 181.346 150.211C176.278 146.847 169.572 142.282 169.506 142.216C169.113 141.954 168.589 142.041 168.327 142.456L168.174 142.981C168.174 143.243 168.327 143.505 168.545 143.658C168.611 143.701 175.317 148.289 180.407 151.653C185.016 154.689 187.2 160.915 188.533 164.628L188.773 165.284C189.341 166.878 190.411 169.281 191.547 171.815C193.055 175.201 194.78 179.024 195.436 181.318C196.113 183.677 197.293 189.509 198.123 193.835C198.647 193.594 199.193 193.398 199.739 193.201C198.931 188.941 197.773 183.196 197.074 180.815C196.375 178.412 194.715 174.677 193.098 171.094" fill="#CA6C18"/>
<path d="M195.174 160.872C194.497 160.238 193.426 158.797 192.159 157.115C190.084 154.34 187.484 150.889 184.841 148.442C180.254 144.226 172.63 140.12 167.519 139.093C166.557 138.896 165.422 138.547 164.176 138.11C163.565 138.481 162.975 138.896 162.363 139.289C164.133 139.967 165.815 140.535 167.191 140.797C171.975 141.736 179.38 145.755 183.705 149.709C186.239 152.047 188.773 155.433 190.827 158.141C192.181 159.954 193.251 161.374 194.016 162.117C195.785 163.799 202.928 176.054 203.999 182.847C204.392 185.338 204.545 189.16 204.567 192.109C205.113 192.066 205.703 192.044 206.271 192.022C206.227 189.029 206.074 185.141 205.681 182.563C204.567 175.289 197.118 162.663 195.174 160.828" fill="#000034"/>
<path d="M198.58 158.338C198.187 157.617 197.794 156.918 197.444 156.284C194.604 151.085 190.629 146.52 184.512 141.517C179.619 137.52 175.753 134.942 172.52 133.566C171.799 133.894 171.078 134.243 170.379 134.614C173.699 135.685 177.872 138.306 183.442 142.872C189.362 147.721 193.228 152.112 195.937 157.114C196.286 157.77 196.68 158.447 197.073 159.189C200.109 164.672 204.26 172.187 206.16 179.723C207.099 183.415 207.624 188.417 207.864 192.022C208.432 192.022 209 192.044 209.59 192.065C209.349 188.308 208.803 183.153 207.842 179.286C205.876 171.532 201.66 163.908 198.58 158.338Z" fill="#DC651E"/>
<path d="M182.504 144.641C184.011 145.995 191.373 154.362 192.377 155.956C192.64 156.371 193.164 156.481 193.557 156.218C193.95 155.956 194.081 155.432 193.819 155.017C192.749 153.291 185.234 144.75 183.64 143.33C181.958 141.823 173.853 138 169.856 137.017C169.179 136.842 168.348 136.558 167.431 136.187C166.798 136.537 166.186 136.908 165.574 137.279C167.038 137.935 168.392 138.459 169.463 138.721C173.351 139.682 181.149 143.439 182.504 144.641Z" fill="#ED1D24"/>
<path d="M199.826 152.483C199.367 152.089 198.93 151.696 198.472 151.259C194.103 147.196 189.865 143.046 185.933 138.24C182.897 136.099 179.532 134.155 175.863 132.429L175.426 132.211C174.749 132.517 174.071 132.823 173.416 133.128C174.006 133.434 174.574 133.718 175.142 133.98C185.037 138.655 192.246 144.531 197.205 151.871C203.78 161.657 206.904 169.259 209.088 180.924C209.831 184.834 210.202 188.897 210.442 191.868C211.01 191.89 211.578 191.912 212.168 191.956C211.928 188.876 211.556 184.681 210.77 180.596C208.695 169.565 205.658 161.504 199.848 152.439" fill="#0072BC"/>
<path d="M183.856 135.662C182.982 134.527 182.109 133.369 181.257 132.189C180.427 131.709 179.618 131.25 178.854 130.813C178.177 131.075 177.478 131.337 176.822 131.621C178.723 132.735 180.929 133.98 183.31 135.335L183.856 135.641" fill="#C4161C"/>
<path d="M205.658 157.158C204.544 156.306 203.43 155.432 202.338 154.515C202.513 154.82 202.862 155.738 203.037 156.022C207.275 163.689 209.852 173.082 210.748 176.752C211.534 179.92 212.78 186.844 213.763 192.043C214.352 192.087 214.942 192.109 215.532 192.153C214.505 186.823 213.216 179.636 212.408 176.337C211.578 172.995 209.219 164.41 205.658 157.158Z" fill="#ED1D24"/>
<path d="M211.558 161.33C210.75 160.784 209.92 160.238 209.111 159.648C210.313 162.663 211.296 166.355 211.864 169.566C213.153 177.058 214.769 186.08 216.058 192.175C216.648 192.219 217.237 192.24 217.827 192.284C216.517 186.189 214.878 176.927 213.546 169.26C213.131 166.879 212.454 163.908 211.558 161.33Z" fill="#F7941E"/>
<path d="M215.511 163.908C214.812 163.471 214.092 163.034 213.393 162.575C214.747 167.053 217.434 182.803 218.351 188.985C218.461 189.728 218.679 191.344 218.832 192.306C219.422 192.349 219.99 192.371 220.579 192.393C220.405 191.366 220.186 189.619 220.055 188.723C219.334 183.874 217.041 170.155 215.511 163.908Z" fill="#2E3092"/>
<path d="M224.488 174.262C224.422 173.476 224.182 171.444 223.898 169.194C223.286 168.867 222.653 168.517 222.041 168.167C222.391 170.723 222.718 173.279 222.806 174.393C222.893 175.529 223.658 180.968 224.531 187.26C224.75 188.745 225.099 191.432 225.318 192.939C225.907 192.939 226.475 192.939 227.043 192.939C226.825 191.344 226.432 188.592 226.213 187.019C225.361 181.012 224.575 175.354 224.488 174.284" fill="#D78817"/>
<path d="M228.814 183.262C229.229 179.876 229.032 175.638 228.399 171.597C227.765 171.269 227.132 170.92 226.477 170.57C227.285 174.83 227.547 179.439 227.11 183.044C226.826 185.446 227.066 189.793 227.372 192.808C227.962 192.808 228.53 192.764 229.098 192.742C228.77 189.815 228.53 185.534 228.814 183.262Z" fill="#030F50"/>
<path d="M232.507 173.781C231.961 173.475 231.415 173.191 230.825 172.885V173.475C230.475 177.604 230.17 186.582 230.454 192.676C231.043 192.633 231.611 192.567 232.157 192.48C231.895 187.259 232.07 179.22 232.485 173.781" fill="#2D7D2F"/>
<path d="M237.051 176.446L236.942 176.359C236.658 176.184 236.374 175.988 236.068 175.791C235.85 175.66 235.609 175.529 235.369 175.376C236.024 179.57 236.505 185.599 236.767 190.951C237.379 190.689 237.947 190.405 238.449 190.055C238.231 185.534 237.816 180.335 237.291 176.577L237.051 176.403" fill="#DB521F"/>
<path d="M240.699 184.223C240.568 182.694 240.458 181.143 240.305 179.657C239.978 179.133 239.585 178.609 239.082 178.106C238.886 177.91 238.667 177.735 238.449 177.539L238.361 177.451C238.623 179.657 238.82 182.017 238.995 184.376C239.104 185.774 239.213 187.216 239.344 188.614C240 188.002 240.524 187.259 240.873 186.407C240.808 185.687 240.742 184.944 240.699 184.223Z" fill="#000034"/>
<path d="M145.628 199.514C143.378 196.937 141.281 198.072 139.424 199.077L138.987 199.318C137.218 200.257 131.975 205.543 127.082 210.589L126.427 211.288C124.439 213.32 122.866 216.4 122.233 219.524C121.949 220.922 121.206 223.215 120.551 225.247C119.874 227.3 119.48 228.611 119.371 229.245C119.218 230.293 116.378 236.672 115.221 238.616C115.854 238.616 116.51 238.616 117.187 238.616C118.585 235.951 120.9 230.708 121.075 229.507C121.141 228.982 121.665 227.366 122.189 225.815C122.866 223.74 123.609 221.402 123.937 219.917C124.505 217.165 125.946 214.347 127.672 212.555L128.349 211.856C130.752 209.366 138.048 201.83 139.818 200.89L140.276 200.65C142.242 199.602 143.094 199.23 144.383 200.716C145.563 202.07 144.361 206.417 142.745 209.868C142.111 211.223 139.665 215.876 136.759 219.502C133.767 223.237 130.818 229.092 129.922 231.691C129.201 233.788 129.485 236.453 129.878 238.616C130.468 238.616 131.036 238.616 131.626 238.616C131.255 236.584 130.927 234.05 131.539 232.259C132.39 229.725 135.318 224.046 138.07 220.594C141.106 216.815 143.575 212.097 144.274 210.611C145.432 208.143 147.878 202.114 145.65 199.558" fill="#ED1D24"/>
<path d="M150.129 201C150.042 198.99 149.78 196.871 148.054 195.32C146.372 193.813 144.471 192.502 141.391 194.337C139.928 195.233 136.935 197.614 134.052 199.907C131.955 201.589 129.967 203.162 129.071 203.774C128.722 204.014 120.355 209.628 119.35 214.237C118.564 217.798 117.1 224.854 117.035 225.465C116.227 230.402 111.596 237.829 110.896 238.572C111.574 238.572 112.295 238.572 113.081 238.572C114.938 235.995 117.93 230.031 118.717 225.749V225.684C118.717 225.684 120.224 218.169 121.01 214.631C121.644 211.747 126.865 207.335 130.01 205.259C130.972 204.604 132.894 203.075 135.122 201.306C137.831 199.143 140.911 196.674 142.265 195.844C144.187 194.665 145.214 195.124 146.896 196.631C148.032 197.636 148.294 198.968 148.403 201.087C148.491 202.66 147.42 210.109 147.005 212.927C146.7 213.975 142.331 228.83 140.365 234.815C139.971 236.016 139.709 237.305 139.535 238.616H141.26C141.413 237.48 141.654 236.366 141.981 235.361C144.013 229.179 148.6 213.538 148.644 213.364V213.254C148.731 212.839 150.195 203.097 150.085 201" fill="#FAA61A"/>
<path d="M127.85 234.116C127.982 233.592 128.113 232.98 128.244 232.347C128.702 230.228 129.27 227.563 130.253 225.75C133.617 219.568 134.032 219 135.474 217.187C135.933 216.597 136.523 215.854 137.331 214.762L137.812 214.129C138.969 212.578 139.887 211.376 141.853 207.248C142.617 205.631 143.273 203.862 142.246 203.01C141.94 202.748 140.957 201.961 137.812 204.43C136.829 205.194 133.705 208.34 132.329 209.913C131.018 211.42 130.909 211.638 129.249 215.155L128.768 216.16C128.571 216.597 128.746 217.121 129.161 217.34C129.598 217.558 130.1 217.362 130.319 216.925L130.799 215.898C132.438 212.447 132.46 212.381 133.617 211.049C134.906 209.541 137.964 206.505 138.86 205.784C139.93 204.954 140.629 204.604 141.001 204.473C140.957 204.779 140.782 205.369 140.28 206.439C138.38 210.393 137.571 211.507 136.414 213.036L135.933 213.692C135.147 214.762 134.579 215.483 134.12 216.073C132.656 217.93 132.176 218.563 128.746 224.876C127.654 226.908 127.042 229.704 126.562 231.932C126.431 232.544 126.3 233.133 126.168 233.658C125.819 235.077 125.753 236.978 125.775 238.551C126.365 238.551 126.955 238.551 127.523 238.551C127.501 237.087 127.545 235.318 127.85 234.073" fill="#9E0B0F"/>
<path d="M123.196 236.999L123.458 236.3C124.397 233.875 125.555 230.839 125.904 228.349L126.057 227.278C126.363 225.072 126.625 223.172 126.909 220.638C126.953 220.157 126.625 219.72 126.145 219.677C125.664 219.633 125.249 219.982 125.183 220.463C124.899 222.975 124.637 224.876 124.331 227.06L124.179 228.13C123.851 230.424 122.737 233.351 121.841 235.71L121.579 236.409C121.295 237.13 121.055 237.917 120.814 238.616C121.426 238.616 122.038 238.616 122.628 238.616C122.802 238.091 122.977 237.545 123.174 237.043" fill="#232176"/>
<path d="M178.047 192.59C177.916 192.065 177.807 191.629 177.719 191.039C177.435 188.832 176.299 186.102 175.316 184.42C174.246 182.585 169.681 178.347 169.156 177.866L169.091 177.823C167.999 175.966 166.884 174.262 165.923 173.039C162.45 168.626 156.421 167.01 154.193 166.944C153.297 166.922 150.042 166.66 146.591 166.354C143.074 166.07 139.251 165.743 136.739 165.59C136.346 166.136 135.996 166.704 135.625 167.272C137.984 167.403 142.593 167.774 146.46 168.102C150.086 168.408 153.21 168.648 154.149 168.692C156.334 168.757 161.664 170.418 164.591 174.131C167.824 178.216 172.105 186.932 172.258 188.439L172.324 188.985C173.7 200.912 173.547 204.014 173.329 204.801C173.045 205.849 171.909 210.611 170.62 216.138C168.916 223.303 166.819 232.216 166.338 233.788C166.12 234.487 165.727 236.3 165.246 238.682H165.858C166.251 238.682 166.644 238.638 167.016 238.572C167.431 236.475 167.78 234.902 167.955 234.313C168.457 232.696 170.467 224.111 172.258 216.553C173.503 211.289 174.683 206.308 174.967 205.303C175.426 203.643 175.12 198.247 174.028 188.811L173.962 188.264C173.875 187.413 173.023 185.403 171.865 183.044C172.739 183.961 173.481 184.835 173.787 185.359C174.858 187.194 175.753 189.641 175.972 191.323C176.059 192 176.19 192.524 176.343 193.07C176.627 194.162 176.933 195.386 176.933 198.335C176.933 203.905 176.168 209.344 174.683 214.456C172.914 220.551 172.564 221.949 172.542 222.014C172.433 222.495 172.717 222.953 173.176 223.085H173.394C173.787 223.106 174.137 222.844 174.224 222.451C174.224 222.451 174.596 220.987 176.343 214.958C177.872 209.672 178.659 204.08 178.659 198.335C178.659 195.167 178.309 193.813 178.003 192.633" fill="#000034"/>
<path d="M172.41 235.121C172.607 230.926 173.197 226.907 173.219 226.842C173.284 226.361 172.956 225.924 172.498 225.837C172.017 225.749 171.58 226.099 171.515 226.579C171.471 226.863 170.707 231.997 170.619 236.824C171.231 236.344 171.842 235.754 172.41 235.121Z" fill="#8B0304"/>
<path d="M185.432 182.956C183.575 178.762 177.677 169.805 175.799 167.992L175.427 167.621C173.44 165.699 168.809 161.199 162.714 158.643C156.335 155.956 147.663 154.667 147.314 154.624C146.833 154.558 146.396 154.886 146.331 155.366C146.265 155.847 146.593 156.284 147.073 156.371C147.161 156.371 155.877 157.682 162.059 160.281C167.847 162.706 172.326 167.053 174.248 168.888L174.619 169.259C176.17 170.745 182.024 179.526 183.859 183.677C185.41 187.172 186.59 196.914 187.18 201.611C187.223 201.939 187.245 202.223 187.289 202.507C187.748 201.742 188.228 200.999 188.774 200.3C188.119 194.992 187.005 186.451 185.454 182.956" fill="#006594"/>
<path d="M202.885 192.524C202.842 188.046 201.728 180.226 200.548 176.884C199.609 174.284 197.162 170.505 195.196 167.447C194.126 165.787 193.121 164.236 192.859 163.624C192.684 163.187 192.16 162.969 191.723 163.143C191.286 163.34 191.068 163.842 191.264 164.301C191.57 165.066 192.531 166.551 193.754 168.408C195.567 171.226 198.058 175.07 198.932 177.473C200.089 180.728 201.182 188.636 201.182 192.852H201.269C201.793 192.699 202.339 192.59 202.907 192.502" fill="#9E0B0F"/>
<path d="M222.239 181.929C221.781 178.74 221.628 177.669 221.038 174.939C220.405 172.034 219.574 168.582 219.05 166.441C218.351 166.048 217.674 165.633 216.953 165.196C217.303 166.594 218.504 171.422 219.356 175.31C219.946 177.975 220.099 179.024 220.536 182.169C220.82 184.157 221.388 187.98 222.087 192.633C222.676 192.655 223.266 192.677 223.856 192.698C223.113 187.871 222.545 183.939 222.261 181.929" fill="#D191C0"/>
<path d="M189.428 186.167C188.226 179.264 182.896 168.189 177.129 163.296C171.668 158.665 158.649 150.342 153.515 149.184C152.838 149.032 151.986 148.813 151.047 148.551C150.566 149.01 150.107 149.49 149.649 149.971C151.003 150.364 152.205 150.692 153.166 150.888C154.738 151.238 157.294 152.417 160.178 154.012C159.282 153.881 158.343 153.794 157.491 153.728C155.809 153.619 151.833 151.981 148.906 150.735C148.469 151.194 148.054 151.631 147.617 152.09C151.047 153.553 155.263 155.345 157.382 155.476C160.025 155.65 163.564 156.306 164.416 156.459C168.763 159.124 173.219 162.226 176.059 164.607C181.542 169.26 186.631 179.854 187.767 186.451C188.597 191.191 189.275 195.932 189.187 199.689C189.712 198.99 190.279 198.335 190.869 197.701C190.738 194.446 190.214 190.602 189.449 186.167" fill="#985006"/>
<path d="M233.665 192.175H233.796C234.342 192.043 234.844 191.891 235.347 191.738C235.325 191.279 235.303 189.837 235.303 189.509C235.303 186.692 234.932 179.374 234.91 179.068C234.888 178.587 234.473 178.216 234.014 178.238C233.534 178.26 233.184 178.675 233.206 179.155C233.206 179.221 233.577 186.735 233.599 189.531C233.599 189.968 233.621 191.541 233.665 192.175Z" fill="#2F631C"/>
<path d="M136.258 238.615C136.302 235.929 136.979 231.734 137.656 229.594C138.115 228.13 139.273 226.535 140.299 225.137C140.933 224.264 141.545 223.434 141.938 222.669C142.44 221.73 144.996 214.958 145.28 214.193C145.455 213.735 145.236 213.232 144.778 213.057C144.341 212.883 143.838 213.123 143.663 213.56C142.549 216.531 140.758 221.184 140.43 221.817C140.081 222.472 139.513 223.237 138.923 224.067C137.831 225.574 136.586 227.278 136.04 229.026C135.384 231.123 134.62 235.557 134.576 238.594C135.166 238.594 135.734 238.594 136.302 238.594" fill="#CA6C18"/>
</g>
<path d="M100.389 36.8385C100.28 36.5763 100.171 36.2924 100.061 36.0521V36.0084C95.4522 23.8192 85.9499 11.6955 92.5032 5.31689C87.7629 8.76832 75.8795 17.4406 65.1758 24.9332C54.6904 32.2948 43.9211 38.7171 42.523 42.9768C38.2415 56.149 52.3749 75.2192 47.2851 90.8599C42.4794 105.67 11.9189 112.595 14.1908 124.042C16.55 135.859 32.8896 129.262 47.1978 128.738C59.4307 128.279 74.6126 128.389 94.4037 134.068C98.3575 128.498 102.857 120.415 106.484 109.275C109.149 101.039 110.044 91.9958 109.848 83.0614C109.149 62.6586 104.605 48.2631 100.411 36.8166" fill="#FCC8AC"/>
<mask id="mask2_1032_15043" style="mask-type:luminance" maskUnits="userSpaceOnUse" x="14" y="5" width="96" height="130">
<path d="M65.1758 24.9557C54.6904 32.3173 43.9211 38.7396 42.523 43.0211C38.2415 56.1933 52.3749 75.2635 47.2851 90.9042C42.4794 105.715 11.9189 112.639 14.1908 124.086C16.55 135.882 32.8896 129.307 47.1978 128.782C59.4307 128.324 74.6126 128.411 94.4037 134.113C98.3575 128.542 102.857 120.46 106.462 109.319C109.127 101.084 110.022 92.0401 109.826 83.1057C109.127 62.7029 104.583 48.3074 100.389 36.8609C100.28 36.5988 100.171 36.3367 100.061 36.0745V36.0308C95.4522 23.8416 85.928 11.6961 92.5032 5.33936C87.763 8.79078 75.8577 17.463 65.1758 24.9557Z" fill="white"/>
</mask>
<g mask="url(#mask2_1032_15043)">
<path d="M85.6244 53.7465L85.3623 53.3097C86.1705 53.5063 87.0225 53.6155 87.8744 53.5936C93.6413 53.5718 98.2942 48.8534 98.2724 43.0864C98.2724 42.2127 98.1631 41.3826 97.9447 40.5743L98.4253 40.8583L98.6219 40.9894L99.0806 41.2515C99.3428 41.3826 99.583 41.5355 99.8452 41.6666L100.02 41.7539L100.369 41.9287C100.413 42.3219 100.435 42.6932 100.435 43.1083C100.479 50.0767 94.8428 55.7562 87.8744 55.7999C87.4812 55.7999 87.088 55.7999 86.6948 55.7562L86.4982 55.3849L86.4327 55.2538C86.3016 54.9917 86.1487 54.7295 85.9958 54.4674L85.7555 54.0524L85.6026 53.7902M65.0688 81.4672H64.9159C56.615 81.5109 49.7995 74.8046 49.7558 66.4819V66.329C49.0568 66.5911 48.3359 66.8095 47.5932 66.9843C47.899 76.0934 55.3043 83.3895 64.4134 83.6079C64.5882 82.8652 64.8066 82.1444 65.0469 81.4453M68.3673 88.4574C68.8042 78.3653 76.8648 70.2173 86.9351 69.6712C86.8696 69.2124 86.804 68.7319 86.7822 68.2513C86.7822 68.011 86.7385 67.7489 86.7166 67.5086C75.6197 68.1639 66.729 77.142 66.2047 88.2608C66.4887 88.2608 66.7726 88.2827 67.0348 88.3263C67.4717 88.37 67.9304 88.4137 68.3673 88.4574ZM66.2484 78.5837L66.3139 78.4308C66.445 78.1687 66.576 77.9065 66.729 77.6662L66.9911 77.2075L67.1221 76.9891L67.4061 76.5085C66.5979 76.7051 65.7678 76.8362 64.894 76.8362C59.1271 76.8798 54.4087 72.2051 54.3868 66.4382C54.3868 65.5644 54.4742 64.7343 54.6926 63.9261L54.2558 64.1882L53.9718 64.363L53.5567 64.6032C53.2946 64.7562 53.0325 64.8872 52.7703 65.0401L52.6611 65.1057L52.2679 65.3023C52.2461 65.6955 52.2242 66.0887 52.2242 66.4819C52.2679 73.4503 57.9693 79.0861 64.9159 79.0424C65.3091 79.0424 65.7023 79.0206 66.0955 78.9769L66.2702 78.6056M87.8744 58.2684H87.7433C88.0055 58.9674 88.2239 59.6882 88.3987 60.431C97.5078 60.1251 104.826 52.7199 105.022 43.6107C104.28 43.436 103.559 43.2175 102.86 42.9772V43.1083C102.903 51.4092 96.1971 58.2247 87.8744 58.2684ZM33.6346 43.5015C33.6127 39.0889 37.1734 35.4627 41.6078 35.4409C46.0204 35.419 49.6466 39.0015 49.6684 43.4141C49.6903 47.8267 46.1296 51.4529 41.6952 51.4747C37.2826 51.4966 33.6564 47.9141 33.6346 43.5015ZM35.7972 43.5015C35.7972 46.7126 38.4404 49.334 41.6733 49.3121C44.8845 49.3121 47.5058 46.6689 47.484 43.436C47.484 40.2248 44.8408 37.6035 41.6078 37.6253C38.3967 37.6253 35.7753 40.2685 35.7972 43.5015ZM87.8307 51.2126C83.4181 51.2344 79.7919 47.6519 79.7701 43.2394C79.7483 38.8268 83.3089 35.2006 87.7433 35.1787C92.1559 35.1569 95.7821 38.7175 95.8039 43.152C95.8258 47.5646 92.2651 51.1907 87.8307 51.2126ZM93.6195 43.1738C93.6195 39.9627 90.9763 37.3413 87.7433 37.3632C84.5322 37.3632 81.9109 40.0064 81.9327 43.2394C81.9327 46.4505 84.5759 49.05 87.8089 49.05C91.02 49.05 93.6413 46.4068 93.6195 43.1738ZM65.8552 45.3364C65.8115 45.817 65.7678 46.2757 65.7023 46.7563C75.7726 47.1932 83.9424 55.2538 84.4885 65.3241C84.9909 65.2586 85.4934 65.193 85.9958 65.1494C86.2142 65.1494 86.4327 65.1057 86.6511 65.0838C85.9958 53.9868 77.0177 45.0961 65.8989 44.5719C65.8989 44.834 65.877 45.0743 65.8552 45.3364ZM63.5178 42.0816C63.5178 41.8413 63.5615 41.5792 63.5615 41.3389C63.6052 40.8583 63.6489 40.3777 63.7144 39.919C53.6441 39.4821 45.4743 31.4215 44.9282 21.3512C44.4913 21.4167 44.0544 21.4604 43.5957 21.5041C43.3117 21.5259 43.0495 21.5478 42.7656 21.5696C43.4209 32.6666 52.399 41.5573 63.5178 42.0816ZM41.6952 53.9213C40.8214 53.9213 39.9913 53.8121 39.1831 53.6373L39.467 54.0742L39.62 54.3363L39.8602 54.7514C40.0132 55.0135 40.1442 55.2757 40.2971 55.5378L40.3627 55.6689L40.5593 56.0402C40.9525 56.0839 41.3457 56.0839 41.7389 56.0839C48.7073 56.0402 54.3213 50.3388 54.2994 43.3923C54.2994 42.9991 54.2776 42.6059 54.2339 42.2127L53.8844 42.0379L53.7096 41.9505C53.4475 41.8195 53.2072 41.6884 52.9451 41.5573L52.4864 41.2952L52.2679 41.1641L51.7873 40.8801C52.0058 41.6884 52.115 42.5185 52.115 43.3923C52.1368 49.1592 47.484 53.8776 41.717 53.8995M56.8552 66.4382C56.8334 62.0256 60.3941 58.3994 64.8285 58.3776C69.2411 58.3557 72.8672 61.9164 72.8891 66.3508C72.9109 70.7634 69.3503 74.3896 64.9377 74.4114C60.5251 74.4333 56.8989 70.8508 56.8771 66.4382M59.0615 66.4382C59.0615 69.6493 61.7047 72.2707 64.9377 72.2488C68.1488 72.2488 70.7483 69.6056 70.7483 66.3726C70.7483 63.1615 68.1052 60.562 64.8722 60.562C61.661 60.562 59.0397 63.2052 59.0615 66.4382ZM41.7826 58.5305H41.6515C41.9136 59.2295 42.1321 59.9504 42.3068 60.6931C51.416 60.3873 58.7339 52.982 58.9305 43.8728C58.1878 43.6981 57.4669 43.4796 56.7679 43.2394V43.3704C56.8116 51.6713 50.1053 58.4868 41.7826 58.5305ZM64.6756 51.3437H64.8285C73.1294 51.3 79.9449 58.0062 79.9885 66.329V66.46C80.6876 66.1979 81.4084 65.9795 82.1511 65.8047C81.8235 56.6956 74.44 49.3777 65.3309 49.1811C65.1561 49.9238 64.9377 50.6446 64.6974 51.3437M63.496 54.2271L63.4304 54.3582C63.2994 54.6203 63.1465 54.8825 63.0154 55.1446L62.7751 55.5596L62.6222 55.8436L62.3601 56.2805C63.1683 56.0621 63.9984 55.9528 64.8722 55.9528C70.6391 55.9091 75.3575 60.5839 75.3794 66.3508C75.3794 67.2246 75.2701 68.0547 75.0735 68.8629L75.5541 68.5789L75.7507 68.4479L76.2094 68.1857C76.4716 68.0328 76.7119 67.9018 76.974 67.7707L77.1269 67.6833L77.4764 67.5086C77.5201 67.1154 77.5201 66.7222 77.5201 66.329C77.4764 59.3606 71.775 53.7247 64.8285 53.7684C64.4353 53.7684 64.0421 53.7902 63.6489 53.8339L63.4741 54.2053M61.3552 44.3097C60.9183 54.38 52.8577 62.5499 42.7874 63.096C42.8529 63.5547 42.9185 64.0353 42.9403 64.494C42.9622 64.7343 42.984 64.9965 43.0058 65.2586C54.1028 64.6033 62.9935 55.6252 63.5178 44.5063C63.2994 44.5063 63.0809 44.4845 62.8625 44.4626C62.3601 44.419 61.8576 44.3753 61.3552 44.3097ZM86.5419 21.373C75.4449 22.0284 66.5542 31.0065 66.0299 42.1253C66.3139 42.1253 66.5979 42.1471 66.86 42.1908C67.3188 42.2345 67.7556 42.2782 68.1925 42.3219C68.6294 32.2297 76.69 24.0817 86.7603 23.5356C86.6948 23.0769 86.6511 22.5963 86.6074 22.1157C86.5856 21.8755 86.5637 21.6133 86.5419 21.373ZM87.787 30.5696C80.8186 30.6132 75.2046 36.3147 75.2265 43.2612C75.2265 43.6544 75.2483 44.0476 75.292 44.4408L75.6633 44.6374L75.7944 44.7029C76.0565 44.834 76.3187 44.9869 76.5808 45.118L76.9959 45.3583L77.2798 45.533L77.7167 45.7952C77.5201 44.9869 77.3891 44.135 77.3891 43.283C77.3454 37.5161 82.0201 32.7977 87.787 32.7759C88.6608 32.7759 89.4909 32.8632 90.2991 33.0598L90.0152 32.6011L89.8841 32.3827L89.622 31.9239C89.4691 31.6836 89.338 31.4215 89.2069 31.1594L89.1195 31.0064L88.9229 30.6351C88.5297 30.5914 88.1584 30.5914 87.7433 30.5914M70.5954 42.8025C71.3381 42.9772 72.059 43.1957 72.758 43.436V43.3049C72.7143 35.004 79.4206 28.1885 87.7433 28.1448H87.8744C87.6341 27.4458 87.3938 26.7249 87.2191 25.9822C78.1099 26.288 70.8139 33.6933 70.5954 42.8025ZM88.6608 16.6983C88.7263 17.1571 88.7919 17.6376 88.8137 18.1182C88.8356 18.3585 88.8574 18.6206 88.8793 18.8828C99.9762 18.2274 108.867 9.24935 109.391 -1.86948C109.173 -1.86948 108.954 -1.89133 108.736 -1.91317C108.233 -1.95686 107.731 -2.00055 107.229 -2.06608C106.792 8.00422 98.7311 16.1741 88.6608 16.7202M84.2701 19.1886C84.7725 19.1231 85.2749 19.0575 85.7773 19.0138C85.9958 19.0138 86.2142 18.9701 86.4327 18.9701C85.7773 7.87315 76.7993 -1.01755 65.6804 -1.54182C65.6804 -1.27968 65.6586 -1.03939 65.6367 -0.777259C65.593 -0.296681 65.5494 0.162053 65.4838 0.642632C75.5541 1.07952 83.724 9.14013 84.2701 19.2104M80.0759 89.4404C80.0541 85.0278 83.6147 81.4016 88.0492 81.3798C92.4617 81.358 96.0879 84.9186 96.1098 89.353C96.1316 93.7656 92.5491 97.3918 88.1365 97.4136C83.724 97.4355 80.0978 93.8748 80.0759 89.4404ZM82.2604 89.4404C82.2604 92.6516 84.9036 95.2729 88.1365 95.251C91.3477 95.251 93.969 92.6079 93.9472 89.3749C93.9472 86.1637 91.304 83.5424 88.071 83.5642C84.8599 83.5642 82.2604 86.2074 82.2604 89.4404ZM46.0641 72.227C45.6053 70.7415 44.6005 69.1687 44.4913 67.5523C44.0544 67.6178 44.3384 67.6615 43.9015 67.7052C43.6175 67.727 43.3554 67.7488 43.0714 67.7707C43.7267 78.8677 52.7048 87.7584 63.8236 88.2827C63.8236 88.0424 63.8455 87.7802 63.8673 87.5399C63.911 87.0594 63.9547 86.5788 64.0202 86.1201C55.5664 85.7487 48.467 80.0254 46.0641 72.227ZM41.8918 81.6638C46.3044 81.6419 49.9305 85.2244 49.9524 89.637C49.9742 94.0496 46.3917 97.6758 41.9792 97.6976C37.5666 97.7195 33.9404 94.137 33.9185 89.7244C33.8967 85.3118 37.4574 81.6856 41.8918 81.6638ZM36.103 89.7025C36.103 92.9137 38.7462 95.535 41.9792 95.5132C45.1903 95.5132 47.8116 92.87 47.7898 89.637C47.7898 86.4259 45.1466 83.8045 41.9136 83.8264C38.7025 83.8264 36.103 86.4696 36.103 89.7025ZM86.3016 111.35C86.52 111.35 86.7385 111.307 86.9569 111.307C86.3016 100.21 77.3235 91.319 66.2047 90.7948C66.2047 91.0569 66.1828 91.2972 66.161 91.5593C66.1173 92.0399 66.0736 92.4986 66.0081 92.9792C76.0784 93.4161 84.2482 101.477 84.7943 111.547C85.2968 111.481 85.7992 111.416 86.3016 111.372M111.008 58.2028C115.42 58.181 119.046 61.7416 119.068 66.176C119.09 70.5886 115.53 74.2148 111.117 74.2367C106.704 74.2585 103.078 70.6979 103.056 66.2634C103.034 61.8508 106.595 58.2247 111.03 58.2028M111.03 60.3873C107.818 60.3873 105.197 63.0304 105.219 66.2634C105.219 69.4746 107.862 72.0959 111.095 72.0741C114.306 72.0741 116.906 69.4309 116.906 66.1979C116.906 62.9868 114.263 60.3873 111.03 60.3873ZM100.894 63.7513L100.457 64.0134L100.173 64.1882L99.7578 64.4285C99.4957 64.5814 99.2335 64.7125 98.9714 64.8654L98.8622 64.9309L98.469 65.1275C98.4471 65.5207 98.4253 65.9139 98.4253 66.3071C98.469 73.2755 104.17 78.8895 111.117 78.8677C111.51 78.8677 111.903 78.8458 112.297 78.8022L112.471 78.4308L112.537 78.2779C112.668 78.0158 112.799 77.7536 112.952 77.5133L113.214 77.0546L113.345 76.8362L113.629 76.3556C112.821 76.5522 111.991 76.6832 111.117 76.6832C105.35 76.7051 100.632 72.0522 100.61 66.2853C100.61 65.4115 100.697 64.5814 100.916 63.7732M89.8404 21.3293C89.5564 21.3512 89.2943 21.373 89.0103 21.3949C89.6656 32.4919 98.6437 41.3826 109.763 41.9068C109.763 41.6666 109.806 41.4044 109.806 41.1641C109.85 40.6836 109.894 40.203 109.959 39.7442C99.8889 39.3073 91.719 31.2467 91.1729 21.1764C90.736 21.242 90.2991 21.2857 89.8404 21.3293ZM66.6853 124.697C66.8163 124.435 66.9474 124.173 67.1003 123.933L67.3624 123.474L67.4935 123.256L67.7775 122.775C66.9692 122.972 66.1392 123.103 65.2654 123.103C59.4984 123.146 54.78 118.472 54.7582 112.705C54.7582 111.831 54.8674 111.001 55.064 110.193L54.6271 110.455L54.3431 110.63L53.9281 110.87C53.666 111.023 53.4038 111.154 53.1417 111.307L53.0325 111.372L52.6393 111.569C52.6174 111.962 52.5956 112.355 52.5956 112.748C52.6393 119.717 58.3188 125.353 65.2872 125.309C65.6804 125.309 66.0736 125.287 66.4668 125.244L66.6416 124.872L66.7071 124.719M65.2872 127.734C56.9645 127.777 50.1708 121.071 50.1271 112.748V112.617C49.4281 112.88 48.7073 113.098 47.9645 113.273C48.2704 122.382 55.6756 129.678 64.7848 129.896C64.9595 129.154 65.178 128.433 65.4183 127.734H65.2654M75.3357 115.13L75.8162 114.824L76.0128 114.693L76.4716 114.43C76.7119 114.299 76.974 114.147 77.2361 114.015L77.3891 113.928L77.7386 113.753C77.7823 113.36 77.8041 112.989 77.7823 112.574C77.7386 105.605 72.0372 99.9695 65.0906 100.013C64.6974 100.013 64.3042 100.035 63.911 100.079L63.7363 100.45L63.6707 100.581C63.5397 100.843 63.4086 101.105 63.2557 101.367L63.0154 101.783L62.8625 102.045L62.6003 102.482C63.4086 102.285 64.2605 102.154 65.1125 102.154C70.8794 102.11 75.5978 106.785 75.6196 112.552C75.6196 113.426 75.5104 114.256 75.3357 115.064M80.2507 112.661C80.9497 112.399 81.6706 112.181 82.4133 112.006C82.0856 102.897 74.7022 95.5787 65.593 95.3821C65.4183 96.1248 65.1998 96.8457 64.9596 97.5447H65.1125C73.4134 97.501 80.2288 104.207 80.2725 112.53V112.661M18.9769 97.8068C27.2778 97.7632 34.0933 104.469 34.137 112.792V112.923C34.836 112.683 35.5569 112.443 36.2996 112.268C35.9719 103.159 28.5885 95.8627 19.4794 95.6442C19.3046 96.387 19.0862 97.1078 18.8459 97.8068H18.9988M57.2266 112.661C57.2048 108.249 60.7654 104.622 65.1998 104.6C69.6124 104.579 73.2386 108.161 73.2604 112.574C73.2823 116.986 69.6998 120.612 65.2872 120.634C60.8746 120.656 57.2484 117.096 57.2266 112.661ZM59.3892 112.661C59.3892 115.872 62.0324 118.472 65.2654 118.472C68.4765 118.472 71.0978 115.829 71.076 112.596C71.076 109.384 68.4328 106.785 65.1998 106.785C61.9887 106.785 59.3674 109.428 59.3892 112.661ZM103.384 112.421C103.362 108.008 106.923 104.382 111.357 104.36C115.77 104.338 119.396 107.899 119.418 112.333C119.44 116.746 115.879 120.372 111.445 120.394C107.032 120.416 103.406 116.833 103.384 112.421ZM105.568 112.421C105.568 115.632 108.212 118.253 111.445 118.231C114.656 118.231 117.277 115.588 117.255 112.355C117.255 109.144 114.612 106.545 111.379 106.545C108.168 106.545 105.547 109.188 105.568 112.421ZM19.0206 102.46C24.7876 102.438 29.506 107.091 29.5278 112.858C29.5278 113.731 29.4186 114.562 29.222 115.37L29.7026 115.086L29.8992 114.955L30.3579 114.693C30.5982 114.54 30.8603 114.409 31.1225 114.278L31.2754 114.19L31.6249 114.015C31.6686 113.622 31.6686 113.251 31.6686 112.836C31.6249 105.867 25.9235 100.253 18.9769 100.275C18.5837 100.275 18.1905 100.297 17.7973 100.341L17.6226 100.712L17.557 100.843C17.426 101.105 17.2949 101.367 17.142 101.63L16.9017 102.045L16.7488 102.307L16.4867 102.744C17.2949 102.547 18.125 102.416 18.9988 102.416M38.7025 111.765C39.2049 111.7 39.7073 111.634 40.2098 111.591C40.4282 111.591 40.6466 111.547 40.8651 111.547C40.2098 100.45 31.2317 91.5593 20.1128 91.0351C20.1128 91.2972 20.0692 91.5375 20.0692 91.7778C20.0255 92.2584 19.9818 92.7171 19.9162 93.1977C30.0084 93.6346 38.1564 101.695 38.7025 111.765ZM112.864 124.37C112.996 124.108 113.127 123.845 113.28 123.605L113.542 123.146L113.673 122.928L113.957 122.447C113.148 122.644 112.318 122.775 111.445 122.775C105.678 122.797 100.959 118.144 100.937 112.377C100.937 111.503 101.047 110.673 101.243 109.865L100.806 110.127L100.522 110.302L100.107 110.542C99.8452 110.695 99.583 110.826 99.3209 110.979L99.2117 111.045L98.8185 111.241C98.7966 111.634 98.7748 112.028 98.7748 112.421C98.8185 119.389 104.498 125.025 111.466 124.981C111.86 124.981 112.253 124.96 112.646 124.916L112.821 124.544L112.886 124.392M19.1517 127.93C10.8508 127.974 4.03531 121.246 3.99162 112.945V112.814C3.29259 113.076 2.57173 113.295 1.82901 113.469C2.13484 122.578 9.54011 129.896 18.6493 130.093C18.824 129.35 19.0425 128.629 19.2828 127.93H19.1298M111.445 127.406C103.122 127.45 96.3282 120.722 96.2845 112.421V112.29C95.5855 112.552 94.8646 112.77 94.1219 112.945C94.4496 122.054 101.833 129.35 110.942 129.569C111.117 128.826 111.335 128.105 111.576 127.406H111.423M64.5445 9.75178C70.3114 9.70809 75.0299 14.3828 75.0517 20.1497C75.0517 21.0235 74.9643 21.8536 74.7459 22.6619L75.2265 22.3779L75.4449 22.2468L75.9036 21.9847C76.1439 21.8318 76.4061 21.7007 76.6682 21.5696L76.8211 21.4823L77.1706 21.3075C77.1925 20.9143 77.2143 20.5211 77.2143 20.1279C77.1706 13.1595 71.4692 7.52364 64.5227 7.56733C64.1295 7.56733 63.7363 7.58917 63.3431 7.63286L63.1683 8.00422L63.1028 8.13529C62.9717 8.39742 62.8188 8.65955 62.6877 8.92169L62.4474 9.33673L62.2945 9.62071L62.0324 10.0576C62.8406 9.83915 63.6707 9.72993 64.5445 9.72993M56.5931 20.2153C56.5713 15.8027 60.1538 12.1765 64.5663 12.1547C68.9789 12.1328 72.6051 15.6935 72.627 20.1279C72.6488 24.5405 69.0663 28.1667 64.6537 28.1885C60.2411 28.2104 56.615 24.6279 56.5931 20.2153ZM58.7776 20.2153C58.7776 23.4264 61.4207 26.0259 64.6537 26.0259C67.8649 26.0259 70.4644 23.3827 70.4644 20.1497C70.4644 16.9386 67.8212 14.3391 64.5882 14.3391C61.3771 14.3391 58.7557 16.9823 58.7776 20.2153ZM20.4624 124.828C20.5934 124.566 20.7245 124.304 20.8774 124.064L21.1395 123.605L21.2706 123.387L21.5546 122.906C20.7463 123.103 19.9162 123.234 19.0425 123.234C13.2755 123.256 8.55711 118.603 8.53527 112.836C8.53527 111.962 8.64449 111.132 8.84109 110.324L8.4042 110.586L8.12022 110.761L7.70518 111.001C7.44304 111.154 7.18091 111.285 6.91878 111.438L6.80956 111.503L6.41635 111.7C6.37266 112.093 6.37266 112.464 6.37266 112.88C6.41635 119.848 12.0959 125.484 19.0643 125.44C19.4575 125.44 19.8507 125.418 20.2439 125.375L20.4187 125.003L20.4842 124.85M109.653 44.2224C109.435 44.2224 109.216 44.2005 108.998 44.1787C108.496 44.135 107.993 44.0913 107.491 44.0258C107.054 54.1179 98.9932 62.2659 88.9229 62.812C88.9885 63.2707 89.054 63.7513 89.0759 64.2319C89.0977 64.4722 89.1195 64.7343 89.1414 64.9964C100.238 64.3411 109.129 55.363 109.653 44.2442M88.0273 78.8895C88.9011 78.8895 89.7312 78.9988 90.5394 79.1735L90.2554 78.7148L90.1244 78.4963L89.8622 78.0376C89.7312 77.7755 89.5783 77.5352 89.4472 77.273L89.3598 77.1201L89.1851 76.7488C88.7919 76.7051 88.3987 76.7051 88.0055 76.7051C81.0371 76.7488 75.4012 82.4502 75.4449 89.3967C75.4449 89.7899 75.4667 90.1831 75.5104 90.5763L75.8818 90.7729L76.0128 90.8385C76.275 90.9695 76.5371 91.1224 76.7993 91.2535L77.2143 91.4938L77.4983 91.6686L77.9352 91.9307C77.7386 91.1224 77.6075 90.2923 77.6075 89.4186C77.5638 83.6516 82.2385 78.9332 88.0055 78.9114M64.6537 32.8851C65.0469 32.8851 65.4401 32.8632 65.8333 32.8195L66.0081 32.4482L66.0736 32.2953C66.2047 32.0331 66.3357 31.771 66.4887 31.5307L66.7508 31.072L66.8819 30.8535L67.1658 30.373C66.3576 30.5914 65.5275 30.7006 64.6537 30.7006C58.8868 30.7443 54.1684 26.0696 54.1465 20.3027C54.1465 19.4289 54.2339 18.5988 54.4305 17.7687L53.9936 18.0308L53.7096 18.2056L53.2946 18.4459C53.0325 18.5988 52.7703 18.7299 52.5082 18.8828L52.399 18.9483L52.0058 19.1449C51.9839 19.5381 51.9621 19.9095 51.9621 20.3245C52.0058 27.2929 57.7072 32.9069 64.6537 32.8851ZM111.226 81.2269H111.073C102.772 81.2706 95.9787 74.5643 95.9132 66.2416V66.1105C95.2141 66.3727 94.4933 66.5911 93.7506 66.7658C94.0564 75.875 101.462 83.1711 110.571 83.3895C110.746 82.6468 110.964 81.9259 111.204 81.2269M95.651 20.0842V19.9531C94.952 20.2153 94.2311 20.4337 93.4884 20.6085C93.8161 29.7176 101.2 37.0137 110.309 37.2321C110.483 36.4894 110.702 35.7685 110.942 35.0695H110.789C102.488 35.1132 95.6729 28.407 95.6292 20.0842M64.5227 5.14259C72.8236 5.0989 79.639 11.827 79.6827 20.1279V20.259C80.3817 19.9968 81.1026 19.7784 81.8453 19.6036C81.5395 10.4945 74.1342 3.17659 65.0251 2.97999C64.8503 3.7227 64.6319 4.44357 64.3916 5.14259H64.5445M64.2168 37.4287C64.3916 36.686 64.61 35.9651 64.8503 35.2661H64.6974C56.3965 35.3098 49.581 28.6036 49.5373 20.2808V20.1497C48.8383 20.4119 48.1175 20.6303 47.3747 20.8051C47.6806 29.9142 55.0858 37.2103 64.195 37.4287M10.96 112.814C10.9382 108.401 14.4988 104.775 18.9332 104.753C23.3458 104.732 26.972 108.314 26.9938 112.727C27.0157 117.139 23.455 120.765 19.0206 120.787C14.608 120.809 10.9819 117.248 10.96 112.814ZM13.1226 112.814C13.1226 116.025 15.7658 118.646 18.9988 118.625C22.2099 118.625 24.8312 115.981 24.8094 112.748C24.8094 109.537 22.1662 106.938 18.9332 106.938C15.7221 106.938 13.1008 109.581 13.1226 112.814ZM87.9836 74.2367H88.1147C87.8744 73.5376 87.656 72.8168 87.4594 72.0741C78.3502 72.3799 71.0323 79.7852 70.8357 88.8943C71.5784 89.0691 72.2993 89.2875 72.9983 89.5278V89.3967C72.9546 81.0958 79.6609 74.2804 87.9836 74.2367ZM42.1321 127.712C37.7195 127.734 34.137 131.338 34.1588 135.773H36.3214C36.3214 132.54 38.8991 129.918 42.1321 129.896C45.3432 129.896 47.9864 132.474 48.0082 135.707H50.1927C50.1708 131.273 46.5447 127.712 42.1321 127.734M42.1321 125.287C43.0059 125.287 43.8359 125.375 44.6442 125.571L44.3602 125.112L44.2291 124.894L43.967 124.457C43.8359 124.195 43.683 123.955 43.552 123.693L43.4646 123.54L43.2898 123.168C42.8966 123.146 42.5253 123.125 42.1102 123.125C35.1418 123.168 29.506 128.87 29.5497 135.816H31.7123C31.6904 130.049 36.3433 125.331 42.1102 125.309M42.0884 120.7H42.2413C41.9792 120.001 41.7607 119.28 41.586 118.537C32.4768 118.843 25.1589 126.248 24.9623 135.357C25.5521 135.51 26.1419 135.663 26.7099 135.86H27.1249C27.0812 127.559 33.8093 120.744 42.1102 120.7M88.2676 120.438H88.3987C88.1584 119.739 87.9181 119.018 87.7433 118.275C78.6342 118.581 71.3381 125.986 71.1197 135.095C71.7095 135.248 72.2993 135.401 72.8672 135.598H73.2823C73.2386 127.297 79.9667 120.481 88.2676 120.438ZM88.3113 127.493C83.8987 127.515 80.3162 131.142 80.3381 135.554H82.5007C82.5007 132.321 85.0783 129.7 88.3113 129.678C91.5224 129.678 94.1656 132.256 94.1875 135.489H96.3501C96.3282 131.054 92.702 127.493 88.2895 127.515M88.2895 125.069C89.1632 125.069 89.9933 125.178 90.8016 125.353L90.5176 124.894L90.3865 124.676L90.1244 124.217C89.9933 123.955 89.8404 123.714 89.7093 123.452L89.622 123.299L89.4254 122.928C89.0322 122.884 88.639 122.884 88.2458 122.884C81.2774 122.928 75.6633 128.608 75.6852 135.576H77.8478C77.8259 129.809 82.4788 125.091 88.2458 125.069M134.425 127.253C130.012 127.275 126.43 130.901 126.452 135.314H128.636C128.636 132.081 131.214 129.459 134.447 129.438V127.253M134.403 120.197V119.782C134.207 119.214 134.032 118.625 133.879 118.035C124.77 118.362 117.452 125.746 117.255 134.855C117.845 134.986 118.435 135.161 119.003 135.357H119.418C119.374 127.035 126.102 120.241 134.403 120.197ZM134.425 124.807V122.622C127.457 122.666 121.821 128.367 121.864 135.314H124.027C123.983 129.547 128.658 124.828 134.425 124.785M88.1365 101.957C95.1049 101.914 100.719 96.2122 100.697 89.2657C100.697 88.8725 100.675 88.4793 100.632 88.0861L100.282 87.9113L100.107 87.8239C99.8452 87.6929 99.6049 87.5618 99.3427 87.4307L98.884 87.1686L98.6874 87.0375L98.2068 86.7535C98.4034 87.5618 98.5345 88.3919 98.5345 89.2657C98.5782 95.0326 93.9035 99.751 88.1365 99.7728C87.2628 99.7728 86.4327 99.6855 85.6244 99.467L85.9084 99.9039L86.0613 100.166L86.3016 100.581C86.4545 100.843 86.5856 101.105 86.7166 101.367L86.7822 101.499L86.9788 101.87C87.372 101.914 87.7652 101.914 88.1584 101.914M105.328 89.7025C104.585 89.5278 103.865 89.3093 103.166 89.0691V89.2001C103.209 97.501 96.503 104.316 88.1802 104.36H88.0492C88.2894 105.059 88.5079 105.78 88.7045 106.523C97.8136 106.217 105.132 98.8117 105.328 89.7025ZM45.4961 113.6C45.0592 113.666 44.6223 113.71 44.1636 113.753C43.8796 113.775 43.6175 113.797 43.3335 113.819C43.9889 124.916 52.9669 133.807 64.0858 134.331C64.0858 134.091 64.1076 133.85 64.1295 133.588C64.1731 133.108 64.2168 132.627 64.2824 132.168C54.2121 131.731 46.0422 123.671 45.4961 113.6ZM133.42 115.545C133.355 115.086 133.289 114.605 133.245 114.125C133.245 113.884 133.202 113.644 133.18 113.382C122.083 114.037 113.192 123.015 112.668 134.134C112.952 134.134 113.236 134.178 113.498 134.2C113.935 134.243 114.394 134.287 114.83 134.331C115.267 124.261 123.328 116.091 133.398 115.545M43.2243 111.372C54.3213 110.717 63.212 101.739 63.7363 90.62C63.5178 90.62 63.2994 90.5982 63.0809 90.5763C62.5785 90.5326 62.0761 90.489 61.5737 90.4234C61.1368 100.494 53.0762 108.664 43.0058 109.21C43.0714 109.668 43.1151 110.149 43.1588 110.608C43.1806 110.848 43.2025 111.11 43.2243 111.372ZM89.3817 111.11C100.479 110.455 109.369 101.477 109.894 90.3579C109.675 90.3579 109.457 90.336 109.238 90.3142C108.736 90.2705 108.233 90.2268 107.731 90.1613C107.294 100.253 99.2335 108.401 89.1632 108.948C89.2288 109.406 89.2943 109.887 89.3161 110.367C89.338 110.608 89.3598 110.87 89.3817 111.132M91.6317 113.36C91.1948 113.426 90.7579 113.469 90.2991 113.513C90.0152 113.535 89.753 113.557 89.469 113.579C90.1244 124.676 99.1025 133.566 110.221 134.091C110.221 133.85 110.243 133.588 110.265 133.348C110.309 132.867 110.352 132.387 110.418 131.928C100.326 131.491 92.1778 123.43 91.6317 113.36ZM87.2409 115.829C87.1754 115.348 87.1098 114.889 87.0662 114.409C87.0662 114.168 87.0225 113.906 87.0006 113.666C75.9036 114.321 67.0129 123.299 66.4887 134.418C66.7726 134.418 67.0566 134.462 67.3187 134.484C67.7556 134.527 68.2144 134.571 68.6513 134.615C69.0882 124.523 77.1488 116.375 87.2191 115.829M59.1271 89.9865C58.3844 89.8118 57.6635 89.5933 56.9645 89.353V89.4841C57.0082 97.785 50.3019 104.6 41.9792 104.644H41.8263C42.0884 105.343 42.3068 106.064 42.4816 106.807C51.5907 106.501 58.9086 99.0957 59.1052 89.9865M41.0398 116.091C40.9743 115.61 40.9088 115.151 40.8651 114.671C40.8651 114.43 40.8214 114.19 40.7996 113.928C29.7026 114.583 20.8119 123.561 20.2876 134.68C20.5716 134.68 20.8556 134.724 21.1177 134.746C21.5546 134.79 22.0133 134.833 22.4502 134.877C22.8871 124.807 30.9477 116.637 41.018 116.091M39.8166 100.45L40.0568 100.865C40.2098 101.127 40.3408 101.389 40.4937 101.651L40.5593 101.783L40.7559 102.154C41.1491 102.198 41.5423 102.198 41.9355 102.198C48.9039 102.154 54.5179 96.4525 54.496 89.5059C54.496 89.1127 54.4742 88.7195 54.4305 88.3263L54.081 88.1516L53.9062 88.0642C53.6441 87.9331 53.382 87.8021 53.1417 87.6492L52.683 87.387L52.4864 87.256L52.0058 86.972C52.2024 87.7802 52.3116 88.6103 52.3334 89.4841C52.3771 95.251 47.7024 99.9694 41.9355 99.9913C41.0617 99.9913 40.2316 99.9039 39.4234 99.7073L39.6855 100.144L39.8384 100.406M-0.6831 113.863C-1.11999 113.928 -1.55688 113.972 -2.01561 114.015C-2.29959 114.037 -2.56172 114.059 -2.8457 114.081C-2.19037 125.178 6.78771 134.069 17.9065 134.593C17.9065 134.353 17.9284 134.091 17.9502 133.85C17.9939 133.37 18.0376 132.889 18.1031 132.43C8.03285 131.993 -0.136988 123.933 -0.6831 113.863ZM87.6341 12.0673H87.503C87.7433 12.7663 87.9836 13.4872 88.1584 14.2299C97.2675 13.9241 104.564 6.51879 104.782 -2.59035C104.192 -2.74326 103.602 -2.89617 103.034 -3.09277H102.619C102.663 5.22997 95.935 12.0236 87.6341 12.0673ZM85.5152 7.87315L85.7555 8.2882C85.9084 8.55033 86.0395 8.81246 86.1924 9.0746L86.2579 9.20567L86.4545 9.57702C86.8477 9.62071 87.2409 9.62071 87.6341 9.62071C94.6025 9.57702 100.217 3.87561 100.195 -3.07093H98.0102C98.0539 2.69601 93.3792 7.41442 87.6123 7.45811C86.7385 7.45811 85.9084 7.34888 85.1002 7.15228L85.3623 7.58917L85.5152 7.85131M110.352 87.9331C110.396 87.2123 110.418 86.4914 110.44 85.7705H110.134C100.042 85.3118 91.8938 77.2512 91.3477 67.1809C90.9108 67.2464 90.4739 67.2901 90.0152 67.3338C89.7312 67.3557 89.4691 67.3775 89.1851 67.3993C89.8404 78.4963 98.8185 87.387 109.937 87.9113H110.352" fill="#ED1D24"/>
</g>
<path d="M215.314 164.324C215.554 164.477 215.816 164.629 216.035 164.761V164.804C226.957 171.926 241.768 176.163 240.217 185.185C242.008 179.615 246.552 165.612 250.789 153.248C254.94 141.125 259.899 129.591 258.5 125.331C254.219 112.159 231.588 105.038 226.498 89.3971C221.693 74.5865 242.336 51.0163 233.773 43.1086C224.926 34.9388 215.576 49.8804 204.304 58.7274C194.671 66.2856 182.329 75.1326 162.975 82.1447C163.062 88.982 164.154 98.1567 167.78 109.297C170.467 117.533 175.055 125.375 180.472 132.474C193.033 148.574 205.156 157.552 215.292 164.345" fill="#B4DDC1"/>
<mask id="mask3_1032_15043" style="mask-type:luminance" maskUnits="userSpaceOnUse" x="162" y="40" width="97" height="146">
<path d="M204.328 58.7055C194.694 66.2637 182.352 75.1107 162.998 82.1228C163.085 88.9601 164.178 98.1348 167.804 109.276C170.469 117.511 175.078 125.353 180.495 132.452C193.056 148.552 205.18 157.508 215.294 164.302C215.534 164.455 215.796 164.608 216.015 164.739V164.782C226.937 171.904 241.769 176.141 240.196 185.163C241.988 179.593 246.531 165.591 250.769 153.227C254.92 141.103 259.878 129.569 258.48 125.309C254.199 112.137 231.568 105.016 226.478 89.3752C221.672 74.5646 242.315 50.9944 233.752 43.0867C231.961 41.4266 230.148 40.7275 228.291 40.7275C221.039 40.7275 213.262 51.6498 204.284 58.7055" fill="white"/>
</mask>
<g mask="url(#mask3_1032_15043)">
<path d="M183.925 121.945C183.99 122.272 191.505 152.221 193.93 161.134C186.655 149.513 182.396 135.794 183.925 121.945Z" fill="#004521"/>
<path d="M184.297 103.443C186.197 113.098 199.457 149.491 202.537 154.472C195.307 147.416 181.938 124.632 184.297 103.443Z" fill="#004521"/>
<path d="M186.109 91.9745C188.293 105.234 192.837 113.819 202.077 131.469L208.084 142.61L207.975 142.697L207.757 142.326L208.106 142.632L208.019 142.719C198.211 135.642 183.859 112.618 186.131 91.9526" fill="#004521"/>
<path d="M187.334 84.6786C189.867 97.0644 206.163 119.411 213.656 131.513C200.418 120.154 185.673 101.979 187.334 84.6786Z" fill="#004521"/>
<path d="M188.952 77.1851C191.354 88.7189 207.126 105.386 218.267 123.364C205.379 112.202 187.488 93.9616 188.952 77.1851Z" fill="#004521"/>
<path d="M190.543 71.1348C192.924 82.0352 209.657 93.154 224.008 115.37C208.783 102.132 189.472 85.6832 190.543 71.1348Z" fill="#004521"/>
<path d="M192.247 66.3945C194.453 75.6129 216.341 84.5691 229.951 106.151C210.858 89.8992 191.548 77.841 192.247 66.3945Z" fill="#004521"/>
<path d="M193.582 61.7202C194.784 66.242 200.419 67.3998 211.56 74.0842C220.079 79.1958 229.8 88.0647 235.523 96.999C213.395 78.4094 193.254 70.4362 193.582 61.7202Z" fill="#004521"/>
<path d="M194.673 58.0718C194.673 58.0718 194.717 58.6397 195.307 59.2077C199.283 62.812 223.727 60.9334 240.787 87.2341C221.761 70.6542 208.632 68.4261 197.972 62.0475C194.018 59.732 194.673 58.0718 194.673 58.0718Z" fill="#004521"/>
<path d="M196.112 55.4291C196.112 55.4291 195.959 56.1718 198.165 56.2155C198.711 56.2155 199.694 56.1281 201.07 56.0407C209.328 55.4509 231.063 54.8611 246.747 78.6716C237.245 70.327 231.194 66.2639 218.175 61.8077C205.352 57.3951 196.09 57.8538 196.133 55.4072" fill="#004521"/>
<path d="M196.768 52.3049C196.768 52.3049 196.418 52.7636 199.214 51.7588C221.649 43.7855 239.518 51.2345 251.969 69.9989C237.552 57.1543 223.374 50.5573 202.426 52.1957C199.651 52.4359 197.314 52.7418 196.877 52.4578L196.79 52.283" fill="#004521"/>
<path d="M197.643 49.0063C210.531 37.5379 236.963 34.8292 256.601 62.3969C243.341 50.6228 231.261 43.4141 212.257 45.3146C205.769 45.9917 200.482 47.5864 197.643 49.0063Z" fill="#004521"/>
<path d="M178.181 112.595C174.642 121.464 169.269 131.688 156.643 141.343C166.101 124.916 170.645 119.739 178.181 112.595Z" fill="#004521"/>
<path d="M180.321 100.821C170.578 122.6 151.858 131.076 148.057 131.993C152.098 129.503 152.644 128.258 180.321 100.821Z" fill="#004521"/>
<path d="M181.826 91.428C175.01 105.955 160.244 117.794 141.982 120.896L141.916 120.721L142.44 120.634L141.982 120.874L141.916 120.7C169.44 104.425 176.081 97.5881 181.804 91.3843" fill="#004521"/>
<path d="M182.964 84.329C175.471 99.7076 156.139 105.671 139.188 107.965C154.457 100.297 173.898 93.6129 182.964 84.329Z" fill="#004521"/>
<path d="M185.083 76.5305C177.787 91.2536 156.401 95.972 139.646 98.3094C151.137 92.5425 176.891 84.8751 185.083 76.5305Z" fill="#004521"/>
<path d="M201.29 26.5067C191.067 52.8948 185.104 77.7975 181.521 104.098C180.844 109.101 179.927 114.3 178.834 119.236C175.995 132.081 175.23 147.154 177.414 161.724C179.861 147.918 180.953 133.414 181.215 122.928C181.499 112.028 182.766 100.822 184.973 90.1397C189.342 69.0161 195.545 48.7662 204.261 27.6426L201.29 26.4849" fill="#004521"/>
<path d="M241.004 132.999C249.654 129.373 285.457 120.438 291.028 120.22C281.613 118.254 256.492 119.849 241.004 132.999Z" fill="#004521"/>
<path d="M232.922 140.535C244.565 135.205 253.762 134.222 272.614 132.103L284.606 130.901V130.77H284.213L284.628 130.879V130.748C273.837 126.773 248.017 127.69 232.9 140.491" fill="#004521"/>
<path d="M227.811 145.384C238.951 140.797 265.274 141.758 278.817 141.234C262.805 136.821 240.59 134.877 227.811 145.384Z" fill="#004521"/>
<path d="M222.74 150.671C229.403 147.94 240.696 148.443 253.257 148.945C260.247 149.229 267.631 149.513 274.817 149.229C259.133 144.991 235.213 140.579 222.74 150.671Z" fill="#004521"/>
<path d="M218.832 155.127C224.643 152.811 233.206 154.406 244.412 155.979C252.189 157.093 261.276 158.185 271.586 157.988C253.04 153.008 229.754 146.52 218.832 155.127Z" fill="#004521"/>
<path d="M215.973 159.015C220.56 157.289 228.162 160.194 238.036 163.078C246.38 165.524 256.319 167.971 267.438 167.621C244.436 161.199 224.623 152.374 215.973 159.015Z" fill="#004521"/>
<path d="M213 162.554C217.216 161.09 221.126 164.935 232.332 170.177C240.895 174.175 253.085 177.146 263.199 176.905C236.723 169.325 219.706 157.66 213 162.554Z" fill="#004521"/>
<path d="M244.98 123.3C250.092 115.785 255.313 106.108 256.23 90.9917C248.301 107.2 246.619 113.557 244.98 123.3Z" fill="#004521"/>
<path d="M236.832 131.251C248.846 111.962 245.57 92.6515 244.259 89.1782C244.434 93.7 243.757 94.7922 236.832 131.251Z" fill="#004521"/>
<path d="M230.213 137.454C238.055 124.348 239.54 106.37 232.288 90.292L232.113 90.3357L232.332 90.7944L232.288 90.292L232.113 90.3357C233.905 120.743 232.048 129.612 230.213 137.432" fill="#004521"/>
<path d="M225.188 142.129C233.358 128.039 227.765 109.581 220.557 94.9668C222.632 111.088 227.722 130.027 225.188 142.129Z" fill="#004521"/>
<path d="M220.164 147.962C227.897 134.374 220.601 115.675 213.523 101.214C215.096 113.36 222.392 137.039 220.164 147.962Z" fill="#004521"/>
<path d="M215.97 152.003C222.261 140.709 214.004 123.648 204.873 105.103C208.324 128.323 218.045 141.321 215.97 152.003Z" fill="#004521"/>
<path d="M212.082 156.547C216.975 147.481 207.036 132.955 195.982 111.001C199.434 135.576 213.764 147.154 212.082 156.547Z" fill="#004521"/>
<path d="M208.85 159.933C212.432 152.855 199.369 141.845 186.678 116.833C188.36 128.258 193.646 138.765 200.92 147.481C206.403 154.013 209.418 156.153 208.85 159.954" fill="#004521"/>
<path d="M189.299 187.413C204.699 165.284 221.192 147.306 240.065 130.486C243.648 127.297 247.274 123.78 250.573 120.307C259.223 111.219 270.691 102.591 283.383 96.5617C273.771 105.867 262.915 114.43 254.767 120.219C246.313 126.248 238.143 133.217 230.869 140.644C216.517 155.345 203.825 171.029 191.789 189.139L189.299 187.391" fill="#004521"/>
</g>
<path d="M204.152 58.8363C204.37 58.6397 204.589 58.465 204.785 58.2902H204.829C214.987 50.1204 223.593 37.3414 231.676 41.601C226.936 38.1715 215.008 29.521 204.567 21.6789C194.322 13.9896 184.885 5.71057 180.407 5.71057C166.557 5.71057 152.774 25.0211 136.346 25.0211C120.771 25.0211 104.738 -1.89131 94.5798 3.8101C84.0726 9.68627 95.3881 23.208 100.325 36.6642C104.541 48.1544 109.128 62.6154 109.849 83.1929C116.381 85.2245 125.446 87.0157 137.155 87.0157C145.805 87.0157 154.696 85.0497 163.128 82.1225C182.307 75.1323 194.606 66.3945 204.195 58.8582" fill="#000034"/>
<mask id="mask4_1032_15043" style="mask-type:luminance" maskUnits="userSpaceOnUse" x="90" y="3" width="142" height="85">
<path d="M94.5798 3.80997C84.0726 9.68613 95.3881 23.2079 100.325 36.6641C104.541 48.1543 109.128 62.6153 109.849 83.1928C116.381 85.2243 125.446 87.0156 137.155 87.0156C145.805 87.0156 154.696 85.0714 163.128 82.1224C182.329 75.1322 194.606 66.3725 204.195 58.858C204.414 58.6614 204.632 58.4867 204.829 58.3119H204.873C215.03 50.1421 223.637 37.3412 231.719 41.6227C226.979 38.1932 215.052 29.5428 204.61 21.7006C194.365 14.0113 184.929 5.73228 180.429 5.73228C166.579 5.73228 152.795 25.0646 136.368 25.0646C122.279 25.0646 107.818 3.04541 97.6599 3.04541C96.5895 3.04541 95.5628 3.2857 94.5798 3.83181" fill="white"/>
</mask>
<g mask="url(#mask4_1032_15043)">
<path d="M221.059 34.72L220.972 34.9166V35.7249C220.491 35.9215 220.186 36.3584 220.186 36.8826C220.186 37.5598 220.732 38.1278 221.431 38.1278C222.13 38.1278 222.676 37.5817 222.676 36.8826C222.676 36.2273 222.173 35.703 221.518 35.6375V35.0259L222.195 34.3487L221.758 34.021L221.059 34.72Z" fill="#52C6D8"/>
<path d="M94.0977 25.9824L94.3379 26.4849L94.0977 25.9824Z" fill="#52C6D8"/>
<path d="M156.989 39.3946L157.076 39.5912L159.544 42.0596L159.741 42.147H164.896L166.819 44.0693V47.5644L161.925 52.4576L161.838 52.6542V55.4502L161.925 55.6468L162.865 56.5862L163.061 56.6735H166.993L169.636 59.3167L169.833 59.4041H176.102L176.299 59.3167L178.855 56.7609C179.073 56.9138 179.314 57.0012 179.576 57.0012C180.253 57.0012 180.821 56.4551 180.821 55.7561C180.821 55.057 180.275 54.5109 179.576 54.5109C178.877 54.5109 178.331 55.057 178.331 55.7561C178.331 55.9745 178.396 56.1711 178.484 56.3677L175.993 58.858H169.942L167.299 56.2148L167.103 56.1274H163.192L162.406 55.341V52.7852L167.299 47.8921L167.387 47.6955V43.9819L167.299 43.7853L165.224 41.7101L165.027 41.6227H159.872L157.557 39.3072V18.8389L157.491 18.6642L156.224 16.7637L155.787 17.0695L157.032 18.9263V39.3727" fill="#52C6D8"/>
<path d="M165.399 34.3483C165.159 34.1299 164.875 34.0206 164.569 34.0206C163.892 34.0206 163.324 34.5668 163.324 35.2658C163.324 35.9648 163.87 36.5109 164.569 36.5109C165.268 36.5109 165.814 35.9648 165.814 35.2658L165.727 34.807L166.142 34.392L166.23 34.1954V9.57667L165.683 9.90434V34.0643L165.421 34.3265" fill="#52C6D8"/>
<path d="M168.523 17.5288L171.952 20.9584V26.2666C171.406 26.3977 170.991 26.9001 170.991 27.4681C170.991 28.1452 171.537 28.7132 172.236 28.7132C172.935 28.7132 173.481 28.1671 173.481 27.4681C173.481 26.9001 173.066 26.3977 172.52 26.2666V20.8492L172.433 20.6526L169.003 17.223V7.96095L168.457 8.26677V17.3322L168.544 17.5288" fill="#52C6D8"/>
<path d="M186.391 30.6563L180.493 36.5543H177.282L177.085 36.6417L174.114 39.6126L174.027 39.8092V49.1586L173.066 50.1197C172.826 49.9013 172.542 49.7921 172.236 49.7921C171.559 49.7921 170.991 50.3382 170.991 51.0372C170.991 51.7362 171.559 52.2823 172.236 52.2823C172.913 52.2823 173.481 51.7144 173.481 51.0372L173.394 50.5785L174.508 49.4644L174.595 49.2678V39.9184L177.413 37.1004H180.624L180.821 37.0131L186.872 30.9621L186.959 30.7655V22.9234L186.872 22.7268L171.013 6.86769L170.488 7.10798L186.391 23.0108V30.6345" fill="#52C6D8"/>
<path d="M191.744 24.9117V39.2417L190.04 40.9456L189.952 41.1422V52.9382L188.751 54.1397C188.533 53.9212 188.227 53.812 187.921 53.812C187.244 53.812 186.676 54.3581 186.676 55.0571C186.676 55.7561 187.222 56.3023 187.921 56.3023C188.62 56.3023 189.166 55.7561 189.166 55.0571L189.057 54.5765L190.389 53.244L190.477 53.0474V41.2514L192.159 39.5694L192.246 39.3728V25.0428L199.52 17.7686L199.083 17.4409L191.787 24.737L191.7 24.9336" fill="#52C6D8"/>
<path d="M106.615 5.51417H91.4989C91.3678 5.62339 91.1931 5.82 90.9746 6.06028H107.707C107.336 5.86368 106.965 5.68893 106.615 5.51417Z" fill="#52C6D8"/>
<path d="M188.423 31.4654L181.389 38.4994H178.702L178.505 38.5867L175.775 41.3173L175.688 41.5139V52.2177L173.066 54.839C172.826 54.5987 172.52 54.4677 172.192 54.4677C171.515 54.4677 170.947 55.0138 170.947 55.7128C170.947 56.4118 171.493 56.9579 172.192 56.9579C172.891 56.9579 173.438 56.4118 173.438 55.7128L173.372 55.2978L176.146 52.5235L176.234 52.3269V41.6231L178.811 39.0455H181.498L181.695 38.9581L188.903 31.7494L188.991 31.5528V17.4194L188.903 17.2228L176.43 4.7715C176.234 4.81519 176.015 4.85888 175.819 4.92441L188.445 17.5287V31.4436" fill="#52C6D8"/>
<path d="M158.889 37.7346L161.489 40.3341L161.685 40.4215H166.448C166.666 40.5744 167.562 41.4919 168.501 42.5186V49.618L165.749 52.3704C165.53 52.1957 165.268 52.1083 164.984 52.1083C164.307 52.1083 163.739 52.6544 163.739 53.3534C163.739 54.0525 164.307 54.5986 164.984 54.5986C165.661 54.5986 166.229 54.0525 166.229 53.3534L166.098 52.8073L168.982 49.9239L169.069 49.7273V42.4094L169.003 42.2346C166.884 39.8754 166.666 39.8754 166.535 39.8754H161.817L159.37 37.4288V14.23L159.152 14.3829L158.846 14.6013V37.5162L158.933 37.7128" fill="#52C6D8"/>
<path d="M111.138 16.436C111.815 16.436 112.383 15.8899 112.383 15.1909C112.383 14.4919 111.837 13.9458 111.138 13.9458C110.592 13.9458 110.133 14.3171 109.959 14.7977H89.25C89.2937 14.9943 89.3155 15.1691 89.3592 15.3657H109.915C110.002 15.9555 110.527 16.4142 111.138 16.4142" fill="#52C6D8"/>
<path d="M160.224 36.1621L162.081 38.0188L162.277 38.1062H167.804L170.491 40.7931V43.8513L170.578 44.0479L171.19 44.6596C171.059 44.8562 170.993 45.0965 170.993 45.3149C170.993 45.9921 171.539 46.56 172.238 46.56C172.937 46.56 173.483 46.0139 173.483 45.3149C173.483 44.6159 172.937 44.0698 172.238 44.0698C171.998 44.0698 171.779 44.1353 171.583 44.2664L171.059 43.7203V40.662L170.971 40.4654L168.131 37.6256L167.935 37.5383H162.408L160.704 35.8344V13.2691L160.158 13.6623V35.9655L160.246 36.1621" fill="#52C6D8"/>
<path d="M92.1328 22.0064L92.2202 22.2029L92.1328 22.0064Z" fill="#52C6D8"/>
<path d="M91.959 21.6572L92.1337 22.0067L91.959 21.6572Z" fill="#52C6D8"/>
<path d="M141.763 81.3792C142.331 81.2481 142.725 80.7457 142.725 80.1778C142.725 79.5006 142.179 78.9326 141.48 78.9326C140.78 78.9326 140.234 79.5006 140.234 80.1778C140.234 80.7676 140.649 81.27 141.196 81.3792V86.2505L141.283 86.4471L141.916 87.0806C142.157 87.0806 142.397 87.0369 142.615 87.0151L141.742 86.1413V81.4011" fill="#52C6D8"/>
<path d="M199.391 19.3416V30.8755L193.34 36.9264V50.6885L195.699 53.0477L195.59 53.5501C195.59 54.2273 196.136 54.7952 196.835 54.7952C197.534 54.7952 198.08 54.2491 198.08 53.5501C198.08 52.8511 197.534 52.305 196.835 52.305C196.551 52.305 196.267 52.4142 196.07 52.5889L193.908 50.4263V37.1449L199.959 31.094V19.5601L200.854 18.6645L200.396 18.315L199.5 19.2324L199.413 19.3198" fill="#52C6D8"/>
<path d="M229.185 40.9678L230.059 40.0941L229.6 39.7446L228.377 40.9678C228.661 40.9678 228.923 40.9678 229.185 40.9678Z" fill="#52C6D8"/>
<path d="M138.358 84.0891V77.5794C138.904 77.4483 139.319 76.9678 139.319 76.378C139.319 75.7008 138.773 75.1328 138.074 75.1328C137.375 75.1328 136.828 75.6789 136.828 76.378C136.828 76.9678 137.243 77.4483 137.79 77.5794V83.5211H135.277L131.477 87.322C131.739 87.322 132.001 87.3439 132.263 87.3657L135.518 84.1109H138.358" fill="#52C6D8"/>
<path d="M190.807 20.1503C190.807 20.8275 191.353 21.3954 192.052 21.3954C192.751 21.3954 193.297 20.8493 193.297 20.1503C193.297 19.5605 192.882 19.0799 192.336 18.9489V10.648L191.768 10.2329V18.9707C191.222 19.1018 190.807 19.5824 190.807 20.1722" fill="#52C6D8"/>
<path d="M178.046 21.4172L173.284 16.6551C173.393 16.4585 173.481 16.24 173.481 15.9997C173.481 15.3226 172.934 14.7546 172.235 14.7546C171.536 14.7546 170.99 15.3226 170.99 15.9997C170.99 16.6769 171.536 17.2449 172.235 17.2449C172.476 17.2449 172.694 17.1793 172.891 17.0483L177.5 21.6575V31.6185L172.869 36.2496C172.694 36.1404 172.476 36.0748 172.235 36.0748C171.558 36.0748 170.99 36.6209 170.99 37.32C170.99 38.019 171.536 38.5651 172.235 38.5651C172.934 38.5651 173.481 38.019 173.481 37.32C173.481 37.0797 173.415 36.8394 173.284 36.6428L178.068 31.8588V21.4172" fill="#52C6D8"/>
<path d="M149.126 28.7563H143.774L138.925 23.9505C138.663 23.9724 138.422 23.9942 138.16 24.0161L143.534 29.3461H149.672V29.0621C149.781 25.436 149.803 18.7079 149.781 17.6812L149.213 17.9433C149.213 19.4069 149.17 26.8558 149.126 28.7563Z" fill="#52C6D8"/>
<path d="M112.187 10.3201H89.0753L89.0098 10.888H112.929C112.667 10.6914 112.427 10.5167 112.165 10.3201" fill="#52C6D8"/>
<path d="M155.091 19.669V40.2901L155.178 40.4867L160.18 45.4891L160.377 45.5765H162.059C162.19 46.1445 162.692 46.5595 163.26 46.5595C163.938 46.5595 164.506 46.0134 164.506 45.3144C164.506 44.6153 163.959 44.0692 163.26 44.0692C162.692 44.0692 162.168 44.4843 162.059 45.0304H160.486L155.637 40.1809V19.5816L155.571 19.4068L154.676 17.9214L154.217 18.2272L155.112 19.6908" fill="#52C6D8"/>
<path d="M108.561 7.78615H89.8403C89.7529 7.9609 89.6655 8.1575 89.5781 8.3541H109.391C109.107 8.1575 108.823 7.9609 108.539 7.78615" fill="#52C6D8"/>
<path d="M90.4501 18.5333L90.5157 18.6644H98.5544C98.6418 19.2542 99.1661 19.7129 99.7777 19.7129C100.455 19.7129 101.023 19.1668 101.023 18.4678C101.023 17.7688 100.477 17.2227 99.7777 17.2227C99.2316 17.2227 98.7729 17.594 98.5981 18.0746H90.2754L90.4501 18.5333Z" fill="#52C6D8"/>
<path d="M90.4512 18.5332L90.5136 18.6582L90.4512 18.5332Z" fill="#52C6D8"/>
<path d="M221.495 40.3777C220.818 40.3777 220.25 40.9238 220.25 41.6228C220.25 42.3219 220.796 42.868 221.495 42.868C222.194 42.868 222.74 42.3219 222.74 41.6228C222.74 41.3826 222.675 41.1641 222.544 40.9675L226.235 37.2758L225.777 36.9263L222.15 40.5525C221.954 40.4432 221.735 40.3559 221.495 40.3559" fill="#52C6D8"/>
</g>
</g>
<defs>
<clipPath id="clip0_1032_15043">
<rect width="244.264" height="241.2" fill="white" transform="translate(14)"/>
</clipPath>
</defs>
</svg>
