<svg width="31" height="30" viewBox="0 0 31 30" fill="none" xmlns="http://www.w3.org/2000/svg">
<path d="M29.3493 14.8255C29.3282 17.2486 28.7774 19.6378 27.7355 21.8255M15.1746 29.0001C13.3132 29.0001 11.47 28.6335 9.75023 27.9211C8.03049 27.2088 6.46789 26.1647 5.15165 24.8484C2.49339 22.1902 1 18.5848 1 14.8255M19.5361 19.1869L15.1746 13.7351H8.63249" stroke="#F0AE44" stroke-width="2" stroke-linecap="round" stroke-linejoin="round"/>
<path d="M26.0777 27.9097C27.8843 27.9097 29.3488 26.4452 29.3488 24.6386C29.3488 22.8321 27.8843 21.3676 26.0777 21.3676C24.2711 21.3676 22.8066 22.8321 22.8066 24.6386C22.8066 26.4452 24.2711 27.9097 26.0777 27.9097Z" stroke="#F0AE44" stroke-width="2" stroke-linecap="round" stroke-linejoin="round"/>
<path d="M1.91602 9.592C2.39127 8.40429 3.02982 7.28865 3.81323 6.27732M8.02201 2.5265C9.25097 1.81686 10.5825 1.30192 11.9691 1M28.4335 9.592C27.9582 8.40429 27.3197 7.28865 26.5363 6.27732M22.3275 2.5265C21.0985 1.81686 19.767 1.30192 18.3804 1" stroke="#F0AE44" stroke-width="2" stroke-linecap="round" stroke-linejoin="round"/>
</svg>
