<svg width="25" height="33" viewBox="0 0 25 33" fill="none" xmlns="http://www.w3.org/2000/svg">
<path d="M12.1905 0.477539C17.2343 0.477539 21.3333 4.53087 21.3333 9.54421C21.3333 16.3404 12.1905 26.3823 12.1905 26.3823C12.1905 26.3823 3.04762 16.3404 3.04762 9.54421C3.04762 4.53087 7.14667 0.477539 12.1905 0.477539ZM12.1905 6.57278C11.3822 6.57278 10.607 6.89386 10.0355 7.4654C9.46395 8.03694 9.14286 8.81212 9.14286 9.6204C9.14286 10.4287 9.46395 11.2038 10.0355 11.7754C10.607 12.3469 11.3822 12.668 12.1905 12.668C12.9988 12.668 13.7739 12.3469 14.3455 11.7754C14.917 11.2038 15.2381 10.4287 15.2381 9.6204C15.2381 8.81212 14.917 8.03694 14.3455 7.4654C13.7739 6.89386 12.9988 6.57278 12.1905 6.57278ZM24.381 26.3823C24.381 29.7499 18.9257 32.4775 12.1905 32.4775C5.45524 32.4775 0 29.7499 0 26.3823C0 24.4166 1.85905 22.6642 4.73905 21.5518L5.71429 22.9385C4.06857 23.6242 3.04762 24.569 3.04762 25.6204C3.04762 27.7233 7.14667 29.4299 12.1905 29.4299C17.2343 29.4299 21.3333 27.7233 21.3333 25.6204C21.3333 24.569 20.3124 23.6242 18.6667 22.9385L19.6419 21.5518C22.5219 22.6642 24.381 24.4166 24.381 26.3823Z" fill="#F0AE44"/>
</svg>
