<svg width="172" height="165" viewBox="0 0 172 165" fill="none" xmlns="http://www.w3.org/2000/svg">
<path d="M2 32.2522V22.1681C2 16.8192 4.20658 11.6894 8.13431 7.90711C12.062 4.12485 17.3892 2 22.9438 2H43.8877" stroke="#B89635" stroke-width="3.1443" stroke-linecap="round" stroke-linejoin="round"/>
<path d="M2 133.094V143.178C2 148.527 4.20658 153.657 8.13431 157.439C12.062 161.221 17.3892 163.346 22.9438 163.346H43.8877" stroke="#B89635" stroke-width="3.1443" stroke-linecap="round" stroke-linejoin="round"/>
<path d="M127.662 2H148.606C154.161 2 159.488 4.12485 163.415 7.90711C167.343 11.6894 169.55 16.8192 169.55 22.1681V32.2522" stroke="#B89635" stroke-width="3.1443" stroke-linecap="round" stroke-linejoin="round"/>
<path d="M127.662 163.346H148.606C154.161 163.346 159.488 161.221 163.415 157.439C167.343 153.657 169.55 148.527 169.55 143.178V133.094" stroke="#B89635" stroke-width="3.1443" stroke-linecap="round" stroke-linejoin="round"/>
</svg>
